<svg width="319" height="49" viewBox="0 0 319 49" fill="none" xmlns="http://www.w3.org/2000/svg">
<rect x="0.5" y="0.5" width="318" height="48" rx="4" fill="#F2F7FB"/>
<rect x="0.5" y="0.5" width="318" height="48" rx="4" stroke="#5ABE8A"/>
<mask id="mask0_615_5622" style="mask-type:alpha" maskUnits="userSpaceOnUse" x="12" y="14" width="21" height="21">
<rect x="12.5" y="14.5" width="20" height="20" fill="#D9D9D9"/>
</mask>
<g mask="url(#mask0_615_5622)">
<path d="M21.3327 28.3332L27.2077 22.4582L26.041 21.2915L21.3327 25.9998L18.9577 23.6248L17.791 24.7915L21.3327 28.3332ZM22.4993 32.8332C21.3466 32.8332 20.2632 32.6144 19.2493 32.1769C18.2355 31.7394 17.3535 31.1457 16.6035 30.3957C15.8535 29.6457 15.2598 28.7637 14.8223 27.7498C14.3848 26.7359 14.166 25.6526 14.166 24.4998C14.166 23.3471 14.3848 22.2637 14.8223 21.2498C15.2598 20.2359 15.8535 19.354 16.6035 18.604C17.3535 17.854 18.2355 17.2603 19.2493 16.8228C20.2632 16.3853 21.3466 16.1665 22.4993 16.1665C23.6521 16.1665 24.7355 16.3853 25.7493 16.8228C26.7632 17.2603 27.6452 17.854 28.3952 18.604C29.1452 19.354 29.7389 20.2359 30.1764 21.2498C30.6139 22.2637 30.8327 23.3471 30.8327 24.4998C30.8327 25.6526 30.6139 26.7359 30.1764 27.7498C29.7389 28.7637 29.1452 29.6457 28.3952 30.3957C27.6452 31.1457 26.7632 31.7394 25.7493 32.1769C24.7355 32.6144 23.6521 32.8332 22.4993 32.8332Z" fill="#5ABE8A"/>
</g>
<path d="M45.56 21.5V18.452L42.584 13.1H43.916L46.184 17.288L48.464 13.1H49.796L46.82 18.428V21.5H45.56ZM52.3321 21.62C50.7361 21.62 49.3201 20.528 49.3201 18.38C49.3201 16.232 50.7361 15.14 52.3321 15.14C53.9401 15.14 55.3441 16.232 55.3441 18.38C55.3441 20.528 53.9401 21.62 52.3321 21.62ZM50.5801 18.38C50.5801 19.892 51.3721 20.636 52.3321 20.636C53.2921 20.636 54.0841 19.892 54.0841 18.38C54.0841 16.856 53.2921 16.124 52.3321 16.124C51.3721 16.124 50.5801 16.856 50.5801 18.38ZM57.8999 18.908C57.8999 20.084 58.3799 20.636 59.2319 20.636C60.1919 20.636 60.8039 19.952 60.8039 18.692V15.26H62.0639V21.5H60.8039V20.468C60.3959 21.224 59.6879 21.62 58.7879 21.62C57.5039 21.62 56.6399 20.828 56.6399 19.1V15.26H57.8999V18.908ZM63.8135 21.5V15.26H65.0735V16.652C65.4815 15.56 66.2975 15.116 67.3535 15.212V16.316C66.1295 16.148 65.0735 16.508 65.0735 18.572V21.5H63.8135ZM75.1142 17.84C75.1142 16.676 74.6342 16.124 73.7822 16.124C72.8222 16.124 72.2102 16.796 72.2102 18.068V21.5H70.9502V15.26H72.2102V16.292C72.6182 15.536 73.3262 15.14 74.2262 15.14C75.5102 15.14 76.3742 15.932 76.3742 17.66V21.5H75.1142V17.84ZM80.7038 21.62C79.0958 21.62 77.6678 20.468 77.6678 18.38C77.6678 16.328 79.0598 15.14 80.6798 15.14C82.7198 15.14 83.7518 16.628 83.7038 18.716H78.9398V18.824C79.0118 20.012 79.8158 20.636 80.7038 20.636C81.4838 20.636 82.0718 20.264 82.3238 19.58H83.5958C83.2238 20.924 82.0598 21.62 80.7038 21.62ZM78.9518 17.768H82.4078C82.2878 16.688 81.6038 16.124 80.6798 16.124C79.8038 16.124 79.0718 16.688 78.9518 17.768ZM84.0106 21.5L86.3146 18.356L84.0466 15.26H85.4026L86.9986 17.468L88.5826 15.26H89.9506L87.6706 18.356L89.9746 21.5H88.6186L86.9986 19.256L85.3786 21.5H84.0106ZM93.6178 21.5C92.1058 21.692 91.2298 21.272 91.2298 19.832V16.268H90.3298V15.26H91.2298V13.82H92.4898V15.26H93.6178V16.268H92.4898V19.712C92.4898 20.48 92.9458 20.636 93.6178 20.54V21.5ZM100.344 21.62C98.7478 21.62 97.3318 20.528 97.3318 18.38C97.3318 16.232 98.7478 15.14 100.344 15.14C101.952 15.14 103.356 16.232 103.356 18.38C103.356 20.528 101.952 21.62 100.344 21.62ZM98.5918 18.38C98.5918 19.892 99.3838 20.636 100.344 20.636C101.304 20.636 102.096 19.892 102.096 18.38C102.096 16.856 101.304 16.124 100.344 16.124C99.3838 16.124 98.5918 16.856 98.5918 18.38ZM104.724 21.5V15.26H105.984V16.652C106.392 15.56 107.208 15.116 108.264 15.212V16.316C107.04 16.148 105.984 16.508 105.984 18.572V21.5H104.724ZM114.795 13.1V21.5H113.535V20.492C113.043 21.236 112.287 21.62 111.435 21.62C109.995 21.62 108.711 20.468 108.711 18.38C108.711 16.292 109.995 15.14 111.435 15.14C112.287 15.14 113.043 15.524 113.535 16.268V13.1H114.795ZM109.971 18.38C109.971 19.808 110.763 20.636 111.747 20.636C112.743 20.636 113.535 19.808 113.535 18.38C113.535 16.94 112.743 16.124 111.747 16.124C110.763 16.124 109.971 16.94 109.971 18.38ZM119.2 21.62C117.592 21.62 116.164 20.468 116.164 18.38C116.164 16.328 117.556 15.14 119.176 15.14C121.216 15.14 122.248 16.628 122.2 18.716H117.436V18.824C117.508 20.012 118.312 20.636 119.2 20.636C119.98 20.636 120.568 20.264 120.82 19.58H122.092C121.72 20.924 120.556 21.62 119.2 21.62ZM117.448 17.768H120.904C120.784 16.688 120.1 16.124 119.176 16.124C118.3 16.124 117.568 16.688 117.448 17.768ZM123.532 21.5V15.26H124.792V16.652C125.2 15.56 126.016 15.116 127.072 15.212V16.316C125.848 16.148 124.792 16.508 124.792 18.572V21.5H123.532ZM130.669 15.26H131.929V21.5H130.669V15.26ZM130.645 14.42V12.98H131.965V14.42H130.645ZM135.025 18.716C134.221 18.572 133.381 18.152 133.381 17.06C133.381 15.824 134.545 15.14 135.805 15.14C136.993 15.14 138.133 15.764 138.289 16.952H137.029C136.933 16.4 136.453 16.124 135.817 16.124C135.133 16.124 134.641 16.472 134.641 17C134.641 17.54 135.145 17.648 135.517 17.72L136.741 17.948C137.701 18.116 138.409 18.56 138.409 19.652C138.409 20.888 137.305 21.62 135.889 21.62C134.533 21.62 133.441 20.96 133.237 19.664H134.497C134.605 20.348 135.181 20.636 135.889 20.636C136.669 20.636 137.149 20.276 137.149 19.724C137.149 19.184 136.717 19.04 136.237 18.944L135.025 18.716ZM143.954 18.716C143.15 18.572 142.31 18.152 142.31 17.06C142.31 15.824 143.474 15.14 144.734 15.14C145.922 15.14 147.062 15.764 147.218 16.952H145.958C145.862 16.4 145.382 16.124 144.746 16.124C144.062 16.124 143.57 16.472 143.57 17C143.57 17.54 144.074 17.648 144.446 17.72L145.67 17.948C146.63 18.116 147.338 18.56 147.338 19.652C147.338 20.888 146.234 21.62 144.818 21.62C143.462 21.62 142.37 20.96 142.166 19.664H143.426C143.534 20.348 144.11 20.636 144.818 20.636C145.598 20.636 146.078 20.276 146.078 19.724C146.078 19.184 145.646 19.04 145.166 18.944L143.954 18.716ZM151.333 21.62C149.725 21.62 148.297 20.468 148.297 18.38C148.297 16.328 149.689 15.14 151.309 15.14C153.349 15.14 154.381 16.628 154.333 18.716H149.569V18.824C149.641 20.012 150.445 20.636 151.333 20.636C152.113 20.636 152.701 20.264 152.953 19.58H154.225C153.853 20.924 152.689 21.62 151.333 21.62ZM149.581 17.768H153.037C152.917 16.688 152.233 16.124 151.309 16.124C150.433 16.124 149.701 16.688 149.581 17.768ZM158.258 21.5C156.746 21.692 155.87 21.272 155.87 19.832V16.268H154.97V15.26H155.87V13.82H157.13V15.26H158.258V16.268H157.13V19.712C157.13 20.48 157.586 20.636 158.258 20.54V21.5ZM165.008 21.5C163.496 21.692 162.62 21.272 162.62 19.832V16.268H161.72V15.26H162.62V13.82H163.88V15.26H165.008V16.268H163.88V19.712C163.88 20.48 164.336 20.636 165.008 20.54V21.5ZM168.781 21.62C167.185 21.62 165.769 20.528 165.769 18.38C165.769 16.232 167.185 15.14 168.781 15.14C170.389 15.14 171.793 16.232 171.793 18.38C171.793 20.528 170.389 21.62 168.781 21.62ZM167.029 18.38C167.029 19.892 167.821 20.636 168.781 20.636C169.741 20.636 170.533 19.892 170.533 18.38C170.533 16.856 169.741 16.124 168.781 16.124C167.821 16.124 167.029 16.856 167.029 18.38ZM175.637 19.784C175.637 18.668 176.549 17.972 178.649 17.828L179.741 17.744V17.552C179.741 16.472 179.237 16.124 178.457 16.124C177.713 16.124 177.161 16.532 177.041 17.204H175.817C176.033 15.932 177.125 15.14 178.481 15.14C179.945 15.14 181.001 15.8 181.001 17.732V19.604C181.001 20.42 181.145 21.116 181.289 21.5H180.065C179.981 21.284 179.909 20.996 179.885 20.588C179.537 21.212 178.913 21.62 177.857 21.62C176.417 21.62 175.637 20.768 175.637 19.784ZM176.897 19.748C176.897 20.24 177.281 20.708 178.169 20.708C179.189 20.708 179.741 20.024 179.741 19.172V18.644L178.889 18.716C177.521 18.812 176.897 19.076 176.897 19.748ZM182.677 21.5V15.26H183.937V16.652C184.345 15.56 185.161 15.116 186.217 15.212V16.316C184.993 16.148 183.937 16.508 183.937 18.572V21.5H182.677ZM187.271 21.5V15.26H188.531V16.652C188.939 15.56 189.755 15.116 190.811 15.212V16.316C189.587 16.148 188.531 16.508 188.531 18.572V21.5H187.271ZM191.864 15.26H193.124V21.5H191.864V15.26ZM191.84 14.42V12.98H193.16V14.42H191.84ZM196.424 21.5L194.168 15.26H195.44L197.24 20.576L199.04 15.26H200.312L198.056 21.5H196.424ZM203.891 21.62C202.283 21.62 200.855 20.468 200.855 18.38C200.855 16.328 202.247 15.14 203.867 15.14C205.907 15.14 206.939 16.628 206.891 18.716H202.127V18.824C202.199 20.012 203.003 20.636 203.891 20.636C204.671 20.636 205.259 20.264 205.511 19.58H206.783C206.411 20.924 205.247 21.62 203.891 21.62ZM202.139 17.768H205.595C205.475 16.688 204.791 16.124 203.867 16.124C202.991 16.124 202.259 16.688 202.139 17.768ZM211.083 15.26H212.343V21.5H211.083V15.26ZM211.059 14.42V12.98H212.379V14.42H211.059ZM218.259 17.84C218.259 16.676 217.779 16.124 216.927 16.124C215.967 16.124 215.355 16.796 215.355 18.068V21.5H214.095V15.26H215.355V16.292C215.763 15.536 216.471 15.14 217.371 15.14C218.655 15.14 219.519 15.932 219.519 17.66V21.5H218.259V17.84ZM226.708 21.5C225.196 21.692 224.32 21.272 224.32 19.832V16.268H223.42V15.26H224.32V13.82H225.58V15.26H226.708V16.268H225.58V19.712C225.58 20.48 226.036 20.636 226.708 20.54V21.5ZM227.946 15.26H229.206V21.5H227.946V15.26ZM227.922 14.42V12.98H229.242V14.42H227.922ZM238.734 17.792C238.734 16.7 238.362 16.124 237.534 16.124C236.634 16.124 236.106 16.784 236.106 17.972V21.5H234.846V17.792C234.846 16.7 234.474 16.124 233.646 16.124C232.746 16.124 232.218 16.784 232.218 17.972V21.5H230.958V15.26H232.218V16.316C232.578 15.548 233.214 15.14 234.102 15.14C235.014 15.14 235.662 15.572 235.95 16.472C236.322 15.596 237.054 15.14 237.99 15.14C239.238 15.14 239.994 15.944 239.994 17.66V21.5H238.734V17.792ZM244.321 21.62C242.713 21.62 241.285 20.468 241.285 18.38C241.285 16.328 242.677 15.14 244.297 15.14C246.337 15.14 247.369 16.628 247.321 18.716H242.557V18.824C242.629 20.012 243.433 20.636 244.321 20.636C245.101 20.636 245.689 20.264 245.941 19.58H247.213C246.841 20.924 245.677 21.62 244.321 21.62ZM242.569 17.768H246.025C245.905 16.688 245.221 16.124 244.297 16.124C243.421 16.124 242.689 16.688 242.569 17.768ZM254.165 21.5C252.653 21.692 251.777 21.272 251.777 19.832V16.268H250.877V15.26H251.777V13.82H253.037V15.26H254.165V16.268H253.037V19.712C253.037 20.48 253.493 20.636 254.165 20.54V21.5ZM257.938 21.62C256.342 21.62 254.926 20.528 254.926 18.38C254.926 16.232 256.342 15.14 257.938 15.14C259.546 15.14 260.95 16.232 260.95 18.38C260.95 20.528 259.546 21.62 257.938 21.62ZM256.186 18.38C256.186 19.892 256.978 20.636 257.938 20.636C258.898 20.636 259.69 19.892 259.69 18.38C259.69 16.856 258.898 16.124 257.938 16.124C256.978 16.124 256.186 16.856 256.186 18.38ZM43.376 37.5V31.26H44.636V32.652C45.044 31.56 45.86 31.116 46.916 31.212V32.316C45.692 32.148 44.636 32.508 44.636 34.572V37.5H43.376ZM50.3874 37.62C48.7794 37.62 47.3514 36.468 47.3514 34.38C47.3514 32.328 48.7434 31.14 50.3634 31.14C52.4034 31.14 53.4354 32.628 53.3874 34.716H48.6234V34.824C48.6954 36.012 49.4994 36.636 50.3874 36.636C51.1674 36.636 51.7554 36.264 52.0074 35.58H53.2794C52.9074 36.924 51.7434 37.62 50.3874 37.62ZM48.6354 33.768H52.0914C51.9714 32.688 51.2874 32.124 50.3634 32.124C49.4874 32.124 48.7554 32.688 48.6354 33.768ZM54.7198 31.26H55.9798V32.268C56.4718 31.524 57.2278 31.14 58.0798 31.14C59.5198 31.14 60.8038 32.292 60.8038 34.38C60.8038 36.468 59.5198 37.62 58.0798 37.62C57.2278 37.62 56.4718 37.236 55.9798 36.492V39.66H54.7198V31.26ZM55.9798 34.38C55.9798 35.808 56.7718 36.636 57.7678 36.636C58.7518 36.636 59.5438 35.808 59.5438 34.38C59.5438 32.94 58.7518 32.124 57.7678 32.124C56.7718 32.124 55.9798 32.94 55.9798 34.38ZM62.1846 29.1H63.4446V37.5H62.1846V29.1ZM64.8123 35.784C64.8123 34.668 65.7243 33.972 67.8243 33.828L68.9163 33.744V33.552C68.9163 32.472 68.4123 32.124 67.6323 32.124C66.8883 32.124 66.3363 32.532 66.2163 33.204H64.9923C65.2083 31.932 66.3003 31.14 67.6563 31.14C69.1203 31.14 70.1763 31.8 70.1763 33.732V35.604C70.1763 36.42 70.3203 37.116 70.4643 37.5H69.2403C69.1563 37.284 69.0843 36.996 69.0603 36.588C68.7123 37.212 68.0883 37.62 67.0323 37.62C65.5923 37.62 64.8123 36.768 64.8123 35.784ZM66.0723 35.748C66.0723 36.24 66.4563 36.708 67.3443 36.708C68.3643 36.708 68.9163 36.024 68.9163 35.172V34.644L68.0643 34.716C66.6963 34.812 66.0723 35.076 66.0723 35.748ZM71.4686 34.38C71.4686 32.232 72.8846 31.14 74.5046 31.14C75.9086 31.14 77.0246 31.884 77.3606 33.3H76.0886C75.8486 32.532 75.2846 32.124 74.5046 32.124C73.5206 32.124 72.7286 32.88 72.7286 34.38C72.7286 35.868 73.5206 36.636 74.5046 36.636C75.2966 36.636 75.8486 36.216 76.1006 35.448H77.3606C77.0246 36.864 75.9086 37.62 74.5046 37.62C72.8846 37.62 71.4686 36.528 71.4686 34.38ZM81.2897 37.62C79.6817 37.62 78.2537 36.468 78.2537 34.38C78.2537 32.328 79.6457 31.14 81.2657 31.14C83.3057 31.14 84.3377 32.628 84.2897 34.716H79.5257V34.824C79.5977 36.012 80.4017 36.636 81.2897 36.636C82.0697 36.636 82.6577 36.264 82.9097 35.58H84.1817C83.8097 36.924 82.6457 37.62 81.2897 37.62ZM79.5377 33.768H82.9937C82.8737 32.688 82.1897 32.124 81.2657 32.124C80.3897 32.124 79.6577 32.688 79.5377 33.768ZM91.1095 37.62C89.5135 37.62 88.0975 36.528 88.0975 34.38C88.0975 32.232 89.5135 31.14 91.1095 31.14C92.7175 31.14 94.1215 32.232 94.1215 34.38C94.1215 36.528 92.7175 37.62 91.1095 37.62ZM89.3575 34.38C89.3575 35.892 90.1495 36.636 91.1095 36.636C92.0695 36.636 92.8615 35.892 92.8615 34.38C92.8615 32.856 92.0695 32.124 91.1095 32.124C90.1495 32.124 89.3575 32.856 89.3575 34.38ZM99.6533 33.84C99.6533 32.676 99.1733 32.124 98.3213 32.124C97.3613 32.124 96.7493 32.796 96.7493 34.068V37.5H95.4893V31.26H96.7493V32.292C97.1573 31.536 97.8653 31.14 98.7653 31.14C100.049 31.14 100.913 31.932 100.913 33.66V37.5H99.6533V33.84ZM106.794 34.716C105.99 34.572 105.15 34.152 105.15 33.06C105.15 31.824 106.314 31.14 107.574 31.14C108.762 31.14 109.902 31.764 110.058 32.952H108.798C108.702 32.4 108.222 32.124 107.586 32.124C106.902 32.124 106.41 32.472 106.41 33C106.41 33.54 106.914 33.648 107.286 33.72L108.51 33.948C109.47 34.116 110.178 34.56 110.178 35.652C110.178 36.888 109.074 37.62 107.658 37.62C106.302 37.62 105.21 36.96 105.006 35.664H106.266C106.374 36.348 106.95 36.636 107.658 36.636C108.438 36.636 108.918 36.276 108.918 35.724C108.918 35.184 108.486 35.04 108.006 34.944L106.794 34.716ZM111.137 34.38C111.137 32.232 112.553 31.14 114.173 31.14C115.577 31.14 116.693 31.884 117.029 33.3H115.757C115.517 32.532 114.953 32.124 114.173 32.124C113.189 32.124 112.397 32.88 112.397 34.38C112.397 35.868 113.189 36.636 114.173 36.636C114.965 36.636 115.517 36.216 115.769 35.448H117.029C116.693 36.864 115.577 37.62 114.173 37.62C112.553 37.62 111.137 36.528 111.137 34.38ZM122.47 33.84C122.47 32.676 121.99 32.124 121.138 32.124C120.178 32.124 119.566 32.796 119.566 34.068V37.5H118.306V29.1H119.566V32.292C119.974 31.536 120.682 31.14 121.582 31.14C122.866 31.14 123.73 31.932 123.73 33.66V37.5H122.47V33.84ZM128.059 37.62C126.451 37.62 125.023 36.468 125.023 34.38C125.023 32.328 126.415 31.14 128.035 31.14C130.075 31.14 131.107 32.628 131.059 34.716H126.295V34.824C126.367 36.012 127.171 36.636 128.059 36.636C128.839 36.636 129.427 36.264 129.679 35.58H130.951C130.579 36.924 129.415 37.62 128.059 37.62ZM126.307 33.768H129.763C129.643 32.688 128.959 32.124 128.035 32.124C127.159 32.124 126.427 32.688 126.307 33.768ZM138.104 29.1V37.5H136.844V36.492C136.352 37.236 135.596 37.62 134.744 37.62C133.304 37.62 132.02 36.468 132.02 34.38C132.02 32.292 133.304 31.14 134.744 31.14C135.596 31.14 136.352 31.524 136.844 32.268V29.1H138.104ZM133.28 34.38C133.28 35.808 134.072 36.636 135.056 36.636C136.052 36.636 136.844 35.808 136.844 34.38C136.844 32.94 136.052 32.124 135.056 32.124C134.072 32.124 133.28 32.94 133.28 34.38ZM141.044 34.908C141.044 36.084 141.524 36.636 142.376 36.636C143.336 36.636 143.948 35.952 143.948 34.692V31.26H145.208V37.5H143.948V36.468C143.54 37.224 142.832 37.62 141.932 37.62C140.648 37.62 139.784 36.828 139.784 35.1V31.26H141.044V34.908ZM146.958 29.1H148.218V37.5H146.958V29.1ZM152.622 37.62C151.014 37.62 149.586 36.468 149.586 34.38C149.586 32.328 150.978 31.14 152.598 31.14C154.638 31.14 155.67 32.628 155.622 34.716H150.858V34.824C150.93 36.012 151.734 36.636 152.622 36.636C153.402 36.636 153.99 36.264 154.242 35.58H155.514C155.142 36.924 153.978 37.62 152.622 37.62ZM150.87 33.768H154.326C154.206 32.688 153.522 32.124 152.598 32.124C151.722 32.124 150.99 32.688 150.87 33.768ZM156.728 36.06H158.048V37.5H156.728V36.06Z" fill="#202635"/>
</svg>
