<svg width="320" height="67" viewBox="0 0 320 67" fill="none" xmlns="http://www.w3.org/2000/svg">
<rect width="320" height="67" rx="4" fill="#D9E8F4"/>
<path d="M23.83 23L23.24 21.44H19.74L19.15 23H18.07L20.79 16H22.18L24.91 23H23.83ZM20.06 20.6H22.92L21.49 16.84L20.06 20.6ZM25.3655 20.4C25.3655 18.61 26.5455 17.7 27.8955 17.7C29.0655 17.7 29.9955 18.32 30.2755 19.5H29.2155C29.0155 18.86 28.5455 18.52 27.8955 18.52C27.0755 18.52 26.4155 19.15 26.4155 20.4C26.4155 21.64 27.0755 22.28 27.8955 22.28C28.5555 22.28 29.0155 21.93 29.2255 21.29H30.2755C29.9955 22.47 29.0655 23.1 27.8955 23.1C26.5455 23.1 25.3655 22.19 25.3655 20.4ZM31.1198 20.4C31.1198 18.61 32.2998 17.7 33.6498 17.7C34.8198 17.7 35.7498 18.32 36.0298 19.5H34.9698C34.7698 18.86 34.2998 18.52 33.6498 18.52C32.8298 18.52 32.1698 19.15 32.1698 20.4C32.1698 21.64 32.8298 22.28 33.6498 22.28C34.3098 22.28 34.7698 21.93 34.9798 21.29H36.0298C35.7498 22.47 34.8198 23.1 33.6498 23.1C32.2998 23.1 31.1198 22.19 31.1198 20.4ZM39.3841 23.1C38.0541 23.1 36.8741 22.19 36.8741 20.4C36.8741 18.61 38.0541 17.7 39.3841 17.7C40.7241 17.7 41.8941 18.61 41.8941 20.4C41.8941 22.19 40.7241 23.1 39.3841 23.1ZM37.9241 20.4C37.9241 21.66 38.5841 22.28 39.3841 22.28C40.1841 22.28 40.8441 21.66 40.8441 20.4C40.8441 19.13 40.1841 18.52 39.3841 18.52C38.5841 18.52 37.9241 19.13 37.9241 20.4ZM43.1339 23V17.8H44.1839V18.96C44.5239 18.05 45.2039 17.68 46.0839 17.76V18.68C45.0639 18.54 44.1839 18.84 44.1839 20.56V23H43.1339ZM51.6267 16V23H50.5767V22.16C50.1667 22.78 49.5367 23.1 48.8267 23.1C47.6267 23.1 46.5567 22.14 46.5567 20.4C46.5567 18.66 47.6267 17.7 48.8267 17.7C49.5367 17.7 50.1667 18.02 50.5767 18.64V16H51.6267ZM47.6067 20.4C47.6067 21.59 48.2667 22.28 49.0867 22.28C49.9167 22.28 50.5767 21.59 50.5767 20.4C50.5767 19.2 49.9167 18.52 49.0867 18.52C48.2667 18.52 47.6067 19.2 47.6067 20.4ZM53.1874 17.8H54.2374V23H53.1874V17.8ZM53.1674 17.1V15.9H54.2674V17.1H53.1674ZM59.2672 19.95C59.2672 18.98 58.8672 18.52 58.1572 18.52C57.3572 18.52 56.8472 19.08 56.8472 20.14V23H55.7972V17.8H56.8472V18.66C57.1872 18.03 57.7772 17.7 58.5272 17.7C59.5972 17.7 60.3172 18.36 60.3172 19.8V23H59.2672V19.95ZM63.7552 22.85C62.5752 22.85 61.5052 21.95 61.5052 20.27C61.5052 18.6 62.5852 17.7 63.7552 17.7C64.4552 17.7 65.0452 18.01 65.4252 18.6V17.8H66.4752V22.1C66.4752 24.05 65.5252 24.9 64.0052 24.9C62.7452 24.9 61.8752 24.25 61.7152 23.18H62.7152C62.8252 23.76 63.2752 24.13 64.0052 24.13C65.0152 24.13 65.4252 23.51 65.4252 22.1V21.95C65.0452 22.54 64.4552 22.85 63.7552 22.85ZM62.5552 20.27C62.5552 21.4 63.1952 22.03 63.9952 22.03C64.7952 22.03 65.4252 21.4 65.4252 20.27C65.4252 19.14 64.7952 18.52 63.9952 18.52C63.1952 18.52 62.5552 19.14 62.5552 20.27ZM72.7212 23C71.4613 23.16 70.7313 22.81 70.7313 21.61V18.64H69.9813V17.8H70.7313V16.6H71.7813V17.8H72.7212V18.64H71.7813V21.51C71.7813 22.15 72.1613 22.28 72.7212 22.2V23ZM75.9653 23.1C74.6353 23.1 73.4553 22.19 73.4553 20.4C73.4553 18.61 74.6353 17.7 75.9653 17.7C77.3053 17.7 78.4753 18.61 78.4753 20.4C78.4753 22.19 77.3053 23.1 75.9653 23.1ZM74.5053 20.4C74.5053 21.66 75.1653 22.28 75.9653 22.28C76.7653 22.28 77.4253 21.66 77.4253 20.4C77.4253 19.13 76.7653 18.52 75.9653 18.52C75.1653 18.52 74.5053 19.13 74.5053 20.4ZM84.388 23.1C83.058 23.1 81.878 22.19 81.878 20.4C81.878 18.61 83.058 17.7 84.388 17.7C85.728 17.7 86.898 18.61 86.898 20.4C86.898 22.19 85.728 23.1 84.388 23.1ZM82.928 20.4C82.928 21.66 83.588 22.28 84.388 22.28C85.188 22.28 85.848 21.66 85.848 20.4C85.848 19.13 85.188 18.52 84.388 18.52C83.588 18.52 82.928 19.13 82.928 20.4ZM89.1278 20.84C89.1278 21.82 89.5278 22.28 90.2378 22.28C91.0378 22.28 91.5478 21.71 91.5478 20.66V17.8H92.5978V23H91.5478V22.14C91.2078 22.77 90.6178 23.1 89.8678 23.1C88.7978 23.1 88.0778 22.44 88.0778 21V17.8H89.1278V20.84ZM94.1558 23V17.8H95.2058V18.96C95.5458 18.05 96.2258 17.68 97.1058 17.76V18.68C96.0858 18.54 95.2058 18.84 95.2058 20.56V23H94.1558ZM100.303 23V17.8H101.353V18.96C101.693 18.05 102.373 17.68 103.253 17.76V18.68C102.233 18.54 101.353 18.84 101.353 20.56V23H100.303ZM106.246 23.1C104.906 23.1 103.716 22.14 103.716 20.4C103.716 18.69 104.876 17.7 106.226 17.7C107.926 17.7 108.786 18.94 108.746 20.68H104.776V20.77C104.836 21.76 105.506 22.28 106.246 22.28C106.896 22.28 107.386 21.97 107.596 21.4H108.656C108.346 22.52 107.376 23.1 106.246 23.1ZM104.786 19.89H107.666C107.566 18.99 106.996 18.52 106.226 18.52C105.496 18.52 104.886 18.99 104.786 19.89ZM109.636 20.4C109.636 18.61 110.816 17.7 112.166 17.7C113.336 17.7 114.266 18.32 114.546 19.5H113.486C113.286 18.86 112.816 18.52 112.166 18.52C111.346 18.52 110.686 19.15 110.686 20.4C110.686 21.64 111.346 22.28 112.166 22.28C112.826 22.28 113.286 21.93 113.496 21.29H114.546C114.266 22.47 113.336 23.1 112.166 23.1C110.816 23.1 109.636 22.19 109.636 20.4ZM117.9 23.1C116.57 23.1 115.39 22.19 115.39 20.4C115.39 18.61 116.57 17.7 117.9 17.7C119.24 17.7 120.41 18.61 120.41 20.4C120.41 22.19 119.24 23.1 117.9 23.1ZM116.44 20.4C116.44 21.66 117.1 22.28 117.9 22.28C118.7 22.28 119.36 21.66 119.36 20.4C119.36 19.13 118.7 18.52 117.9 18.52C117.1 18.52 116.44 19.13 116.44 20.4ZM121.65 23V17.8H122.7V18.96C123.04 18.05 123.72 17.68 124.6 17.76V18.68C123.58 18.54 122.7 18.84 122.7 20.56V23H121.65ZM130.143 16V23H129.093V22.16C128.683 22.78 128.053 23.1 127.343 23.1C126.143 23.1 125.073 22.14 125.073 20.4C125.073 18.66 126.143 17.7 127.343 17.7C128.053 17.7 128.683 18.02 129.093 18.64V16H130.143ZM126.123 20.4C126.123 21.59 126.783 22.28 127.603 22.28C128.433 22.28 129.093 21.59 129.093 20.4C129.093 19.2 128.433 18.52 127.603 18.52C126.783 18.52 126.123 19.2 126.123 20.4ZM132.824 20.68C132.154 20.56 131.454 20.21 131.454 19.3C131.454 18.27 132.424 17.7 133.474 17.7C134.464 17.7 135.414 18.22 135.544 19.21H134.494C134.414 18.75 134.014 18.52 133.484 18.52C132.914 18.52 132.504 18.81 132.504 19.25C132.504 19.7 132.924 19.79 133.234 19.85L134.254 20.04C135.054 20.18 135.644 20.55 135.644 21.46C135.644 22.49 134.724 23.1 133.544 23.1C132.414 23.1 131.504 22.55 131.334 21.47H132.384C132.474 22.04 132.954 22.28 133.544 22.28C134.194 22.28 134.594 21.98 134.594 21.52C134.594 21.07 134.234 20.95 133.834 20.87L132.824 20.68ZM136.742 23V21.8H137.842V23L137.402 24.3H136.812L137.192 23H136.742ZM142.012 24.8L142.692 23L140.622 17.8H141.672L143.192 21.69L144.662 17.8H145.712L143.062 24.8H142.012ZM148.766 23.1C147.436 23.1 146.256 22.19 146.256 20.4C146.256 18.61 147.436 17.7 148.766 17.7C150.106 17.7 151.276 18.61 151.276 20.4C151.276 22.19 150.106 23.1 148.766 23.1ZM147.306 20.4C147.306 21.66 147.966 22.28 148.766 22.28C149.566 22.28 150.226 21.66 150.226 20.4C150.226 19.13 149.566 18.52 148.766 18.52C147.966 18.52 147.306 19.13 147.306 20.4ZM153.506 20.84C153.506 21.82 153.906 22.28 154.616 22.28C155.416 22.28 155.926 21.71 155.926 20.66V17.8H156.976V23H155.926V22.14C155.586 22.77 154.996 23.1 154.246 23.1C153.176 23.1 152.456 22.44 152.456 21V17.8H153.506V20.84ZM158.534 23V17.8H159.584V18.96C159.924 18.05 160.604 17.68 161.484 17.76V18.68C160.464 18.54 159.584 18.84 159.584 20.56V23H158.534ZM166.092 17.43V17.8H167.042V18.64H166.092V23H165.042V18.64H164.292V17.8H165.042V17.38C165.042 16.18 165.782 15.84 167.042 16V16.74C166.472 16.66 166.092 16.8 166.092 17.43ZM167.622 17.1V15.9H168.722V17.1H167.622ZM167.642 23V17.8H168.692V23H167.642ZM170.25 16H171.3V23H170.25V16ZM175.07 23C173.81 23.16 173.08 22.81 173.08 21.61V18.64H172.33V17.8H173.08V16.6H174.13V17.8H175.07V18.64H174.13V21.51C174.13 22.15 174.51 22.28 175.07 22.2V23ZM178.334 23.1C176.994 23.1 175.804 22.14 175.804 20.4C175.804 18.69 176.964 17.7 178.314 17.7C180.014 17.7 180.874 18.94 180.834 20.68H176.864V20.77C176.924 21.76 177.594 22.28 178.334 22.28C178.984 22.28 179.474 21.97 179.684 21.4H180.744C180.434 22.52 179.464 23.1 178.334 23.1ZM176.874 19.89H179.754C179.654 18.99 179.084 18.52 178.314 18.52C177.584 18.52 176.974 18.99 176.874 19.89ZM182.044 23V17.8H183.094V18.96C183.434 18.05 184.114 17.68 184.994 17.76V18.68C183.974 18.54 183.094 18.84 183.094 20.56V23H182.044ZM187.584 17.8H188.634L189.604 21.96L190.724 17.8H191.774L192.894 21.96L193.864 17.8H194.914L193.514 23H192.344L191.254 18.93L190.154 23H188.984L187.584 17.8ZM195.55 21.57C195.55 20.64 196.31 20.06 198.06 19.94L198.97 19.87V19.71C198.97 18.81 198.55 18.52 197.9 18.52C197.28 18.52 196.82 18.86 196.72 19.42H195.7C195.88 18.36 196.79 17.7 197.92 17.7C199.14 17.7 200.02 18.25 200.02 19.86V21.42C200.02 22.1 200.14 22.68 200.26 23H199.24C199.17 22.82 199.11 22.58 199.09 22.24C198.8 22.76 198.28 23.1 197.4 23.1C196.2 23.1 195.55 22.39 195.55 21.57ZM196.6 21.54C196.6 21.95 196.92 22.34 197.66 22.34C198.51 22.34 198.97 21.77 198.97 21.06V20.62L198.26 20.68C197.12 20.76 196.6 20.98 196.6 21.54ZM202.637 20.68C201.967 20.56 201.267 20.21 201.267 19.3C201.267 18.27 202.237 17.7 203.287 17.7C204.277 17.7 205.227 18.22 205.357 19.21H204.307C204.227 18.75 203.827 18.52 203.297 18.52C202.727 18.52 202.317 18.81 202.317 19.25C202.317 19.7 202.737 19.79 203.047 19.85L204.067 20.04C204.867 20.18 205.457 20.55 205.457 21.46C205.457 22.49 204.537 23.1 203.357 23.1C202.227 23.1 201.317 22.55 201.147 21.47H202.197C202.287 22.04 202.767 22.28 203.357 22.28C204.007 22.28 204.407 21.98 204.407 21.52C204.407 21.07 204.047 20.95 203.647 20.87L202.637 20.68ZM213.918 16V23H212.868V22.16C212.458 22.78 211.828 23.1 211.118 23.1C209.918 23.1 208.848 22.14 208.848 20.4C208.848 18.66 209.918 17.7 211.118 17.7C211.828 17.7 212.458 18.02 212.868 18.64V16H213.918ZM209.898 20.4C209.898 21.59 210.558 22.28 211.378 22.28C212.208 22.28 212.868 21.59 212.868 20.4C212.868 19.2 212.208 18.52 211.378 18.52C210.558 18.52 209.898 19.2 209.898 20.4ZM217.689 23.1C216.349 23.1 215.159 22.14 215.159 20.4C215.159 18.69 216.319 17.7 217.669 17.7C219.369 17.7 220.229 18.94 220.189 20.68H216.219V20.77C216.279 21.76 216.949 22.28 217.689 22.28C218.339 22.28 218.829 21.97 219.039 21.4H220.099C219.789 22.52 218.819 23.1 217.689 23.1ZM216.229 19.89H219.109C219.009 18.99 218.439 18.52 217.669 18.52C216.939 18.52 216.329 18.99 216.229 19.89ZM221.399 16H222.449V23H221.399V16ZM224.009 17.8H225.059V23H224.009V17.8ZM223.989 17.1V15.9H225.089V17.1H223.989ZM227.909 23L226.029 17.8H227.089L228.589 22.23L230.089 17.8H231.149L229.269 23H227.909ZM234.231 23.1C232.891 23.1 231.701 22.14 231.701 20.4C231.701 18.69 232.861 17.7 234.211 17.7C235.911 17.7 236.771 18.94 236.731 20.68H232.761V20.77C232.821 21.76 233.491 22.28 234.231 22.28C234.881 22.28 235.371 21.97 235.581 21.4H236.641C236.331 22.52 235.361 23.1 234.231 23.1ZM232.771 19.89H235.651C235.551 18.99 234.981 18.52 234.211 18.52C233.481 18.52 232.871 18.99 232.771 19.89ZM237.942 23V17.8H238.992V18.96C239.332 18.05 240.012 17.68 240.892 17.76V18.68C239.872 18.54 238.992 18.84 238.992 20.56V23H237.942ZM243.885 23.1C242.545 23.1 241.355 22.14 241.355 20.4C241.355 18.69 242.515 17.7 243.865 17.7C245.565 17.7 246.425 18.94 246.385 20.68H242.415V20.77C242.475 21.76 243.145 22.28 243.885 22.28C244.535 22.28 245.025 21.97 245.235 21.4H246.295C245.985 22.52 245.015 23.1 243.885 23.1ZM242.425 19.89H245.305C245.205 18.99 244.635 18.52 243.865 18.52C243.135 18.52 242.525 18.99 242.425 19.89ZM252.355 16V23H251.305V22.16C250.895 22.78 250.265 23.1 249.555 23.1C248.355 23.1 247.285 22.14 247.285 20.4C247.285 18.66 248.355 17.7 249.555 17.7C250.265 17.7 250.895 18.02 251.305 18.64V16H252.355ZM248.335 20.4C248.335 21.59 248.995 22.28 249.815 22.28C250.645 22.28 251.305 21.59 251.305 20.4C251.305 19.2 250.645 18.52 249.815 18.52C248.995 18.52 248.335 19.2 248.335 20.4ZM258.588 23.1C257.258 23.1 256.078 22.19 256.078 20.4C256.078 18.61 257.258 17.7 258.588 17.7C259.928 17.7 261.098 18.61 261.098 20.4C261.098 22.19 259.928 23.1 258.588 23.1ZM257.128 20.4C257.128 21.66 257.788 22.28 258.588 22.28C259.388 22.28 260.048 21.66 260.048 20.4C260.048 19.13 259.388 18.52 258.588 18.52C257.788 18.52 257.128 19.13 257.128 20.4ZM265.808 19.95C265.808 18.98 265.408 18.52 264.698 18.52C263.898 18.52 263.388 19.08 263.388 20.14V23H262.338V17.8H263.388V18.66C263.728 18.03 264.318 17.7 265.068 17.7C266.138 17.7 266.858 18.36 266.858 19.8V23H265.808V19.95ZM20.88 38.1C19.49 38.1 18.5 37.32 18.38 36.01H19.38C19.48 36.85 20.08 37.25 20.85 37.25C21.6 37.25 22.29 36.81 22.29 36C22.29 35.15 21.66 34.7 20.63 34.7H20.33V33.96H20.63C21.54 33.96 22.05 33.52 22.05 32.82C22.05 32.13 21.49 31.74 20.83 31.74C20.21 31.74 19.66 32.13 19.59 32.85H18.59C18.69 31.69 19.6 30.9 20.86 30.9C22.08 30.9 23.1 31.59 23.1 32.72C23.1 33.54 22.58 34.05 21.85 34.29C22.7 34.54 23.34 35.12 23.34 36.07C23.34 37.34 22.18 38.1 20.88 38.1ZM24.2201 38L26.9401 31H28.0001L25.2701 38H24.2201ZM29.9658 36.14C31.7958 34.62 32.3458 33.71 32.3458 32.89C32.3458 32.22 31.9258 31.74 31.1858 31.74C30.4658 31.74 29.9558 32.24 29.8858 32.98H28.8858C28.9758 31.7 30.0058 30.9 31.2358 30.9C32.4658 30.9 33.3958 31.65 33.3958 32.87C33.3958 33.92 32.8158 34.93 30.8458 36.44L29.9558 37.15H33.5158V38H28.7358V37.15L29.9658 36.14ZM34.272 32.85V32.1C35.342 32.06 35.882 31.93 36.022 31H36.972V38H35.922V32.85H34.272ZM38.561 36.8H39.661V38H38.561V36.8ZM43.4344 31H44.4844V38H43.4344V31ZM47.4604 32.43V32.8H48.4104V33.64H47.4604V38H46.4104V33.64H45.6604V32.8H46.4104V32.38C46.4104 31.18 47.1504 30.84 48.4104 31V31.74C47.8404 31.66 47.4604 31.8 47.4604 32.43ZM52.4996 39.8L53.1796 38L51.1096 32.8H52.1596L53.6796 36.69L55.1496 32.8H56.1996L53.5496 39.8H52.4996ZM59.254 38.1C57.924 38.1 56.744 37.19 56.744 35.4C56.744 33.61 57.924 32.7 59.254 32.7C60.594 32.7 61.764 33.61 61.764 35.4C61.764 37.19 60.594 38.1 59.254 38.1ZM57.794 35.4C57.794 36.66 58.454 37.28 59.254 37.28C60.054 37.28 60.714 36.66 60.714 35.4C60.714 34.13 60.054 33.52 59.254 33.52C58.454 33.52 57.794 34.13 57.794 35.4ZM63.9938 35.84C63.9938 36.82 64.3938 37.28 65.1038 37.28C65.9038 37.28 66.4138 36.71 66.4138 35.66V32.8H67.4638V38H66.4138V37.14C66.0738 37.77 65.4838 38.1 64.7338 38.1C63.6638 38.1 62.9438 37.44 62.9438 36V32.8H63.9938V35.84ZM76.2646 31V38H75.2146V37.16C74.8046 37.78 74.1746 38.1 73.4646 38.1C72.2646 38.1 71.1946 37.14 71.1946 35.4C71.1946 33.66 72.2646 32.7 73.4646 32.7C74.1746 32.7 74.8046 33.02 75.2146 33.64V31H76.2646ZM72.2446 35.4C72.2446 36.59 72.9046 37.28 73.7246 37.28C74.5546 37.28 75.2146 36.59 75.2146 35.4C75.2146 34.2 74.5546 33.52 73.7246 33.52C72.9046 33.52 72.2446 34.2 72.2446 35.4ZM77.8253 32.8H78.8753V38H77.8253V32.8ZM77.8053 32.1V30.9H78.9053V32.1H77.8053ZM85.1951 31V38H84.1451V37.16C83.7351 37.78 83.1051 38.1 82.3951 38.1C81.1951 38.1 80.1251 37.14 80.1251 35.4C80.1251 33.66 81.1951 32.7 82.3951 32.7C83.1051 32.7 83.7351 33.02 84.1451 33.64V31H85.1951ZM81.1751 35.4C81.1751 36.59 81.8351 37.28 82.6551 37.28C83.4851 37.28 84.1451 36.59 84.1451 35.4C84.1451 34.2 83.4851 33.52 82.6551 33.52C81.8351 33.52 81.1751 34.2 81.1751 35.4ZM92.7086 34.95C92.7086 33.98 92.3086 33.52 91.5986 33.52C90.7986 33.52 90.2886 34.08 90.2886 35.14V38H89.2386V32.8H90.2886V33.66C90.6286 33.03 91.2186 32.7 91.9686 32.7C93.0386 32.7 93.7586 33.36 93.7586 34.8V38H92.7086V34.95ZM97.4466 38.1C96.1166 38.1 94.9366 37.19 94.9366 35.4C94.9366 33.61 96.1166 32.7 97.4466 32.7C98.7866 32.7 99.9566 33.61 99.9566 35.4C99.9566 37.19 98.7866 38.1 97.4466 38.1ZM95.9866 35.4C95.9866 36.66 96.6466 37.28 97.4466 37.28C98.2466 37.28 98.9066 36.66 98.9066 35.4C98.9066 34.13 98.2466 33.52 97.4466 33.52C96.6466 33.52 95.9866 34.13 95.9866 35.4ZM103.358 38C102.098 38.16 101.368 37.81 101.368 36.61V33.64H100.618V32.8H101.368V31.6H102.418V32.8H103.358V33.64H102.418V36.51C102.418 37.15 102.798 37.28 103.358 37.2V38ZM106.973 38V32.8H108.023V33.96C108.363 33.05 109.043 32.68 109.923 32.76V33.68C108.903 33.54 108.023 33.84 108.023 35.56V38H106.973ZM112.915 38.1C111.575 38.1 110.385 37.14 110.385 35.4C110.385 33.69 111.545 32.7 112.895 32.7C114.595 32.7 115.455 33.94 115.415 35.68H111.445V35.77C111.505 36.76 112.175 37.28 112.915 37.28C113.565 37.28 114.055 36.97 114.265 36.4H115.325C115.015 37.52 114.045 38.1 112.915 38.1ZM111.455 34.89H114.335C114.235 33.99 113.665 33.52 112.895 33.52C112.165 33.52 111.555 33.99 111.455 34.89ZM116.626 32.8H117.676V33.64C118.086 33.02 118.716 32.7 119.426 32.7C120.626 32.7 121.696 33.66 121.696 35.4C121.696 37.14 120.626 38.1 119.426 38.1C118.716 38.1 118.086 37.78 117.676 37.16V39.8H116.626V32.8ZM117.676 35.4C117.676 36.59 118.336 37.28 119.166 37.28C119.986 37.28 120.646 36.59 120.646 35.4C120.646 34.2 119.986 33.52 119.166 33.52C118.336 33.52 117.676 34.2 117.676 35.4ZM122.946 31H123.996V38H122.946V31ZM125.236 36.57C125.236 35.64 125.996 35.06 127.746 34.94L128.656 34.87V34.71C128.656 33.81 128.236 33.52 127.586 33.52C126.966 33.52 126.506 33.86 126.406 34.42H125.386C125.566 33.36 126.476 32.7 127.606 32.7C128.826 32.7 129.706 33.25 129.706 34.86V36.42C129.706 37.1 129.826 37.68 129.946 38H128.926C128.856 37.82 128.796 37.58 128.776 37.24C128.486 37.76 127.966 38.1 127.086 38.1C125.886 38.1 125.236 37.39 125.236 36.57ZM126.286 36.54C126.286 36.95 126.606 37.34 127.346 37.34C128.196 37.34 128.656 36.77 128.656 36.06V35.62L127.946 35.68C126.806 35.76 126.286 35.98 126.286 36.54ZM130.883 35.4C130.883 33.61 132.063 32.7 133.413 32.7C134.583 32.7 135.513 33.32 135.793 34.5H134.733C134.533 33.86 134.063 33.52 133.413 33.52C132.593 33.52 131.933 34.15 131.933 35.4C131.933 36.64 132.593 37.28 133.413 37.28C134.073 37.28 134.533 36.93 134.743 36.29H135.793C135.513 37.47 134.583 38.1 133.413 38.1C132.063 38.1 130.883 37.19 130.883 35.4ZM139.167 38.1C137.827 38.1 136.637 37.14 136.637 35.4C136.637 33.69 137.797 32.7 139.147 32.7C140.847 32.7 141.707 33.94 141.667 35.68H137.697V35.77C137.757 36.76 138.427 37.28 139.167 37.28C139.817 37.28 140.307 36.97 140.517 36.4H141.577C141.267 37.52 140.297 38.1 139.167 38.1ZM137.707 34.89H140.587C140.487 33.99 139.917 33.52 139.147 33.52C138.417 33.52 137.807 33.99 137.707 34.89ZM147.55 38.1C146.22 38.1 145.04 37.19 145.04 35.4C145.04 33.61 146.22 32.7 147.55 32.7C148.89 32.7 150.06 33.61 150.06 35.4C150.06 37.19 148.89 38.1 147.55 38.1ZM146.09 35.4C146.09 36.66 146.75 37.28 147.55 37.28C148.35 37.28 149.01 36.66 149.01 35.4C149.01 34.13 148.35 33.52 147.55 33.52C146.75 33.52 146.09 34.13 146.09 35.4ZM154.77 34.95C154.77 33.98 154.37 33.52 153.66 33.52C152.86 33.52 152.35 34.08 152.35 35.14V38H151.3V32.8H152.35V33.66C152.69 33.03 153.28 32.7 154.03 32.7C155.1 32.7 155.82 33.36 155.82 34.8V38H154.77V34.95ZM162.011 38C160.751 38.16 160.021 37.81 160.021 36.61V33.64H159.271V32.8H160.021V31.6H161.071V32.8H162.011V33.64H161.071V36.51C161.071 37.15 161.451 37.28 162.011 37.2V38ZM166.613 34.95C166.613 33.98 166.213 33.52 165.503 33.52C164.703 33.52 164.193 34.08 164.193 35.14V38H163.143V31H164.193V33.66C164.533 33.03 165.123 32.7 165.873 32.7C166.943 32.7 167.663 33.36 167.663 34.8V38H166.613V34.95ZM168.841 36.57C168.841 35.64 169.601 35.06 171.351 34.94L172.261 34.87V34.71C172.261 33.81 171.841 33.52 171.191 33.52C170.571 33.52 170.111 33.86 170.011 34.42H168.991C169.171 33.36 170.081 32.7 171.211 32.7C172.431 32.7 173.311 33.25 173.311 34.86V36.42C173.311 37.1 173.431 37.68 173.551 38H172.531C172.461 37.82 172.401 37.58 172.381 37.24C172.091 37.76 171.571 38.1 170.691 38.1C169.491 38.1 168.841 37.39 168.841 36.57ZM169.891 36.54C169.891 36.95 170.211 37.34 170.951 37.34C171.801 37.34 172.261 36.77 172.261 36.06V35.62L171.551 35.68C170.411 35.76 169.891 35.98 169.891 36.54ZM176.989 38C175.729 38.16 174.999 37.81 174.999 36.61V33.64H174.249V32.8H174.999V31.6H176.049V32.8H176.989V33.64H176.049V36.51C176.049 37.15 176.429 37.28 176.989 37.2V38ZM185.364 31V38H184.314V37.16C183.904 37.78 183.274 38.1 182.564 38.1C181.364 38.1 180.294 37.14 180.294 35.4C180.294 33.66 181.364 32.7 182.564 32.7C183.274 32.7 183.904 33.02 184.314 33.64V31H185.364ZM181.344 35.4C181.344 36.59 182.004 37.28 182.824 37.28C183.654 37.28 184.314 36.59 184.314 35.4C184.314 34.2 183.654 33.52 182.824 33.52C182.004 33.52 181.344 34.2 181.344 35.4ZM186.605 36.57C186.605 35.64 187.365 35.06 189.115 34.94L190.025 34.87V34.71C190.025 33.81 189.605 33.52 188.955 33.52C188.335 33.52 187.875 33.86 187.775 34.42H186.755C186.935 33.36 187.845 32.7 188.975 32.7C190.195 32.7 191.075 33.25 191.075 34.86V36.42C191.075 37.1 191.195 37.68 191.315 38H190.295C190.225 37.82 190.165 37.58 190.145 37.24C189.855 37.76 189.335 38.1 188.455 38.1C187.255 38.1 186.605 37.39 186.605 36.57ZM187.655 36.54C187.655 36.95 187.975 37.34 188.715 37.34C189.565 37.34 190.025 36.77 190.025 36.06V35.62L189.315 35.68C188.175 35.76 187.655 35.98 187.655 36.54ZM194.752 38C193.492 38.16 192.762 37.81 192.762 36.61V33.64H192.012V32.8H192.762V31.6H193.812V32.8H194.752V33.64H193.812V36.51C193.812 37.15 194.192 37.28 194.752 37.2V38ZM198.016 38.1C196.676 38.1 195.486 37.14 195.486 35.4C195.486 33.69 196.646 32.7 197.996 32.7C199.696 32.7 200.556 33.94 200.516 35.68H196.546V35.77C196.606 36.76 197.276 37.28 198.016 37.28C198.666 37.28 199.156 36.97 199.366 36.4H200.426C200.116 37.52 199.146 38.1 198.016 38.1ZM196.556 34.89H199.436C199.336 33.99 198.766 33.52 197.996 33.52C197.266 33.52 196.656 33.99 196.556 34.89ZM201.528 38V36.8H202.628V38L202.188 39.3H201.598L201.978 38H201.528ZM206.798 39.8L207.478 38L205.408 32.8H206.458L207.978 36.69L209.448 32.8H210.498L207.848 39.8H206.798ZM213.552 38.1C212.222 38.1 211.042 37.19 211.042 35.4C211.042 33.61 212.222 32.7 213.552 32.7C214.892 32.7 216.062 33.61 216.062 35.4C216.062 37.19 214.892 38.1 213.552 38.1ZM212.092 35.4C212.092 36.66 212.752 37.28 213.552 37.28C214.352 37.28 215.012 36.66 215.012 35.4C215.012 34.13 214.352 33.52 213.552 33.52C212.752 33.52 212.092 34.13 212.092 35.4ZM218.292 35.84C218.292 36.82 218.692 37.28 219.402 37.28C220.202 37.28 220.712 36.71 220.712 35.66V32.8H221.762V38H220.712V37.14C220.372 37.77 219.782 38.1 219.032 38.1C217.962 38.1 217.242 37.44 217.242 36V32.8H218.292V35.84ZM225.483 35.4C225.483 33.61 226.663 32.7 228.013 32.7C229.183 32.7 230.113 33.32 230.393 34.5H229.333C229.133 33.86 228.663 33.52 228.013 33.52C227.193 33.52 226.533 34.15 226.533 35.4C226.533 36.64 227.193 37.28 228.013 37.28C228.673 37.28 229.133 36.93 229.343 36.29H230.393C230.113 37.47 229.183 38.1 228.013 38.1C226.663 38.1 225.483 37.19 225.483 35.4ZM231.237 36.57C231.237 35.64 231.997 35.06 233.747 34.94L234.657 34.87V34.71C234.657 33.81 234.237 33.52 233.587 33.52C232.967 33.52 232.507 33.86 232.407 34.42H231.387C231.567 33.36 232.477 32.7 233.607 32.7C234.827 32.7 235.707 33.25 235.707 34.86V36.42C235.707 37.1 235.827 37.68 235.947 38H234.927C234.857 37.82 234.797 37.58 234.777 37.24C234.487 37.76 233.967 38.1 233.087 38.1C231.887 38.1 231.237 37.39 231.237 36.57ZM232.287 36.54C232.287 36.95 232.607 37.34 233.347 37.34C234.197 37.34 234.657 36.77 234.657 36.06V35.62L233.947 35.68C232.807 35.76 232.287 35.98 232.287 36.54ZM240.674 34.95C240.674 33.98 240.274 33.52 239.564 33.52C238.764 33.52 238.254 34.08 238.254 35.14V38H237.204V32.8H238.254V33.66C238.594 33.03 239.184 32.7 239.934 32.7C241.004 32.7 241.724 33.36 241.724 34.8V38H240.674V34.95ZM245.705 38V32.8H246.755V33.96C247.095 33.05 247.775 32.68 248.655 32.76V33.68C247.635 33.54 246.755 33.84 246.755 35.56V38H245.705ZM251.648 38.1C250.308 38.1 249.118 37.14 249.118 35.4C249.118 33.69 250.278 32.7 251.628 32.7C253.328 32.7 254.188 33.94 254.148 35.68H250.178V35.77C250.238 36.76 250.908 37.28 251.648 37.28C252.298 37.28 252.788 36.97 252.998 36.4H254.058C253.748 37.52 252.778 38.1 251.648 38.1ZM250.188 34.89H253.068C252.968 33.99 252.398 33.52 251.628 33.52C250.898 33.52 250.288 33.99 250.188 34.89ZM256.478 35.68C255.808 35.56 255.108 35.21 255.108 34.3C255.108 33.27 256.078 32.7 257.128 32.7C258.118 32.7 259.068 33.22 259.198 34.21H258.148C258.068 33.75 257.668 33.52 257.138 33.52C256.568 33.52 256.158 33.81 256.158 34.25C256.158 34.7 256.578 34.79 256.888 34.85L257.908 35.04C258.708 35.18 259.298 35.55 259.298 36.46C259.298 37.49 258.378 38.1 257.198 38.1C256.068 38.1 255.158 37.55 254.988 36.47H256.038C256.128 37.04 256.608 37.28 257.198 37.28C257.848 37.28 258.248 36.98 258.248 36.52C258.248 36.07 257.888 35.95 257.488 35.87L256.478 35.68ZM262.727 38.1C261.387 38.1 260.197 37.14 260.197 35.4C260.197 33.69 261.357 32.7 262.707 32.7C264.407 32.7 265.267 33.94 265.227 35.68H261.257V35.77C261.317 36.76 261.987 37.28 262.727 37.28C263.377 37.28 263.867 36.97 264.077 36.4H265.137C264.827 37.52 263.857 38.1 262.727 38.1ZM261.267 34.89H264.147C264.047 33.99 263.477 33.52 262.707 33.52C261.977 33.52 261.367 33.99 261.267 34.89ZM268.598 38C267.338 38.16 266.608 37.81 266.608 36.61V33.64H265.858V32.8H266.608V31.6H267.658V32.8H268.598V33.64H267.658V36.51C267.658 37.15 268.038 37.28 268.598 37.2V38ZM19.5 54.8L20.18 53L18.11 47.8H19.16L20.68 51.69L22.15 47.8H23.2L20.55 54.8H19.5ZM26.2544 53.1C24.9244 53.1 23.7444 52.19 23.7444 50.4C23.7444 48.61 24.9244 47.7 26.2544 47.7C27.5944 47.7 28.7644 48.61 28.7644 50.4C28.7644 52.19 27.5944 53.1 26.2544 53.1ZM24.7944 50.4C24.7944 51.66 25.4544 52.28 26.2544 52.28C27.0544 52.28 27.7144 51.66 27.7144 50.4C27.7144 49.13 27.0544 48.52 26.2544 48.52C25.4544 48.52 24.7944 49.13 24.7944 50.4ZM30.9942 50.84C30.9942 51.82 31.3942 52.28 32.1042 52.28C32.9042 52.28 33.4142 51.71 33.4142 50.66V47.8H34.4642V53H33.4142V52.14C33.0742 52.77 32.4842 53.1 31.7342 53.1C30.6642 53.1 29.9442 52.44 29.9442 51V47.8H30.9942V50.84ZM36.0222 53V47.8H37.0722V48.96C37.4122 48.05 38.0922 47.68 38.9722 47.76V48.68C37.9522 48.54 37.0722 48.84 37.0722 50.56V53H36.0222ZM43.5795 47.43V47.8H44.5295V48.64H43.5795V53H42.5295V48.64H41.7795V47.8H42.5295V47.38C42.5295 46.18 43.2695 45.84 44.5295 46V46.74C43.9595 46.66 43.5795 46.8 43.5795 47.43ZM45.1095 47.1V45.9H46.2095V47.1H45.1095ZM45.1295 53V47.8H46.1795V53H45.1295ZM47.7382 46H48.7882V53H47.7382V46ZM52.558 53C51.298 53.16 50.568 52.81 50.568 51.61V48.64H49.818V47.8H50.568V46.6H51.618V47.8H52.558V48.64H51.618V51.51C51.618 52.15 51.998 52.28 52.558 52.2V53ZM55.822 53.1C54.482 53.1 53.292 52.14 53.292 50.4C53.292 48.69 54.452 47.7 55.802 47.7C57.502 47.7 58.362 48.94 58.322 50.68H54.352V50.77C54.412 51.76 55.082 52.28 55.822 52.28C56.472 52.28 56.962 51.97 57.172 51.4H58.232C57.922 52.52 56.952 53.1 55.822 53.1ZM54.362 49.89H57.242C57.142 48.99 56.572 48.52 55.802 48.52C55.072 48.52 54.462 48.99 54.362 49.89ZM59.5323 53V47.8H60.5823V48.96C60.9223 48.05 61.6023 47.68 62.4823 47.76V48.68C61.4623 48.54 60.5823 48.84 60.5823 50.56V53H59.5323ZM69.1496 49.95C69.1496 48.98 68.7496 48.52 68.0396 48.52C67.2396 48.52 66.7296 49.08 66.7296 50.14V53H65.6796V46H66.7296V48.66C67.0696 48.03 67.6596 47.7 68.4096 47.7C69.4796 47.7 70.1996 48.36 70.1996 49.8V53H69.1496V49.95ZM73.9076 53.1C72.5676 53.1 71.3776 52.14 71.3776 50.4C71.3776 48.69 72.5376 47.7 73.8876 47.7C75.5876 47.7 76.4476 48.94 76.4076 50.68H72.4376V50.77C72.4976 51.76 73.1676 52.28 73.9076 52.28C74.5576 52.28 75.0476 51.97 75.2576 51.4H76.3176C76.0076 52.52 75.0376 53.1 73.9076 53.1ZM72.4476 49.89H75.3276C75.2276 48.99 74.6576 48.52 73.8876 48.52C73.1576 48.52 72.5476 48.99 72.4476 49.89ZM77.2979 51.57C77.2979 50.64 78.0579 50.06 79.8079 49.94L80.7179 49.87V49.71C80.7179 48.81 80.2979 48.52 79.6479 48.52C79.0279 48.52 78.5679 48.86 78.4679 49.42H77.4479C77.6279 48.36 78.5379 47.7 79.6679 47.7C80.8879 47.7 81.7679 48.25 81.7679 49.86V51.42C81.7679 52.1 81.8879 52.68 82.0079 53H80.9879C80.9179 52.82 80.8579 52.58 80.8379 52.24C80.5479 52.76 80.0279 53.1 79.1479 53.1C77.9479 53.1 77.2979 52.39 77.2979 51.57ZM78.3479 51.54C78.3479 51.95 78.6679 52.34 79.4079 52.34C80.2579 52.34 80.7179 51.77 80.7179 51.06V50.62L80.0079 50.68C78.8679 50.76 78.3479 50.98 78.3479 51.54ZM83.2648 46H84.3148V53H83.2648V46ZM88.0845 53C86.8245 53.16 86.0945 52.81 86.0945 51.61V48.64H85.3445V47.8H86.0945V46.6H87.1445V47.8H88.0845V48.64H87.1445V51.51C87.1445 52.15 87.5245 52.28 88.0845 52.2V53ZM92.6867 49.95C92.6867 48.98 92.2867 48.52 91.5767 48.52C90.7767 48.52 90.2667 49.08 90.2667 50.14V53H89.2167V46H90.2667V48.66C90.6067 48.03 91.1967 47.7 91.9467 47.7C93.0167 47.7 93.7367 48.36 93.7367 49.8V53H92.6867V49.95ZM97.7175 46H98.7675V48.64C99.1775 48.02 99.8075 47.7 100.518 47.7C101.718 47.7 102.788 48.66 102.788 50.4C102.788 52.14 101.718 53.1 100.518 53.1C99.8075 53.1 99.1775 52.78 98.7675 52.16V53H97.7175V46ZM98.7675 50.4C98.7675 51.59 99.4275 52.28 100.258 52.28C101.078 52.28 101.738 51.59 101.738 50.4C101.738 49.2 101.078 48.52 100.258 48.52C99.4275 48.52 98.7675 49.2 98.7675 50.4ZM106.248 53.1C104.908 53.1 103.718 52.14 103.718 50.4C103.718 48.69 104.878 47.7 106.228 47.7C107.928 47.7 108.788 48.94 108.748 50.68H104.778V50.77C104.838 51.76 105.508 52.28 106.248 52.28C106.898 52.28 107.388 51.97 107.598 51.4H108.658C108.348 52.52 107.378 53.1 106.248 53.1ZM104.788 49.89H107.668C107.568 48.99 106.998 48.52 106.228 48.52C105.498 48.52 104.888 48.99 104.788 49.89ZM109.959 46H111.009V53H109.959V46ZM114.758 53.1C113.428 53.1 112.248 52.19 112.248 50.4C112.248 48.61 113.428 47.7 114.758 47.7C116.098 47.7 117.268 48.61 117.268 50.4C117.268 52.19 116.098 53.1 114.758 53.1ZM113.298 50.4C113.298 51.66 113.958 52.28 114.758 52.28C115.558 52.28 116.218 51.66 116.218 50.4C116.218 49.13 115.558 48.52 114.758 48.52C113.958 48.52 113.298 49.13 113.298 50.4ZM117.949 47.8H118.999L119.969 51.96L121.089 47.8H122.139L123.259 51.96L124.229 47.8H125.279L123.879 53H122.709L121.619 48.93L120.519 53H119.349L117.949 47.8ZM125.832 51.8H126.932V53H125.832V51.8Z" fill="#202635"/>
<path d="M304.854 23.1463C304.9 23.1927 304.937 23.2479 304.962 23.3086C304.987 23.3693 305 23.4343 305 23.5C305 23.5657 304.987 23.6308 304.962 23.6915C304.937 23.7522 304.9 23.8073 304.854 23.8538C304.807 23.9002 304.752 23.9371 304.691 23.9622C304.631 23.9874 304.565 24.0003 304.5 24.0003C304.434 24.0003 304.369 23.9874 304.308 23.9622C304.248 23.9371 304.192 23.9002 304.146 23.8538L300 19.7069L295.854 23.8538C295.76 23.9476 295.632 24.0003 295.5 24.0003C295.367 24.0003 295.24 23.9476 295.146 23.8538C295.052 23.76 295 23.6327 295 23.5C295 23.3674 295.052 23.2401 295.146 23.1463L299.293 19L295.146 14.8538C295.052 14.76 295 14.6327 295 14.5C295 14.3674 295.052 14.2401 295.146 14.1463C295.24 14.0525 295.367 13.9998 295.5 13.9998C295.632 13.9998 295.76 14.0525 295.854 14.1463L300 18.2932L304.146 14.1463C304.24 14.0525 304.367 13.9998 304.5 13.9998C304.632 13.9998 304.76 14.0525 304.854 14.1463C304.947 14.2401 305 14.3674 305 14.5C305 14.6327 304.947 14.76 304.854 14.8538L300.707 19L304.854 23.1463Z" fill="black"/>
</svg>
