<svg width="18" height="18" viewBox="0 0 18 18" fill="none" xmlns="http://www.w3.org/2000/svg">
<path d="M14.625 2.39062H12.7969V1.6875C12.7969 1.57561 12.7524 1.46831 12.6733 1.38919C12.5942 1.31007 12.4869 1.26562 12.375 1.26562C12.2631 1.26562 12.1558 1.31007 12.0767 1.38919C11.9976 1.46831 11.9531 1.57561 11.9531 1.6875V2.39062H6.04688V1.6875C6.04688 1.57561 6.00243 1.46831 5.92331 1.38919C5.84419 1.31007 5.73689 1.26562 5.625 1.26562C5.51311 1.26562 5.40581 1.31007 5.32669 1.38919C5.24757 1.46831 5.20312 1.57561 5.20312 1.6875V2.39062H3.375C3.11393 2.39062 2.86355 2.49434 2.67894 2.67894C2.49434 2.86355 2.39062 3.11393 2.39062 3.375V14.625C2.39062 14.8861 2.49434 15.1365 2.67894 15.3211C2.86355 15.5057 3.11393 15.6094 3.375 15.6094H14.625C14.8861 15.6094 15.1365 15.5057 15.3211 15.3211C15.5057 15.1365 15.6094 14.8861 15.6094 14.625V3.375C15.6094 3.11393 15.5057 2.86355 15.3211 2.67894C15.1365 2.49434 14.8861 2.39062 14.625 2.39062ZM3.375 3.23438H5.20312V3.9375C5.20312 4.04939 5.24757 4.15669 5.32669 4.23581C5.40581 4.31493 5.51311 4.35938 5.625 4.35938C5.73689 4.35938 5.84419 4.31493 5.92331 4.23581C6.00243 4.15669 6.04688 4.04939 6.04688 3.9375V3.23438H11.9531V3.9375C11.9531 4.04939 11.9976 4.15669 12.0767 4.23581C12.1558 4.31493 12.2631 4.35938 12.375 4.35938C12.4869 4.35938 12.5942 4.31493 12.6733 4.23581C12.7524 4.15669 12.7969 4.04939 12.7969 3.9375V3.23438H14.625C14.6623 3.23438 14.6981 3.24919 14.7244 3.27556C14.7508 3.30194 14.7656 3.3377 14.7656 3.375V5.76562H3.23438V3.375C3.23438 3.3377 3.24919 3.30194 3.27556 3.27556C3.30194 3.24919 3.3377 3.23438 3.375 3.23438ZM14.625 14.7656H3.375C3.3377 14.7656 3.30194 14.7508 3.27556 14.7244C3.24919 14.6981 3.23438 14.6623 3.23438 14.625V6.60938H14.7656V14.625C14.7656 14.6623 14.7508 14.6981 14.7244 14.7244C14.6981 14.7508 14.6623 14.7656 14.625 14.7656Z" fill="#202635"/>
</svg>
