<svg width="16" height="16" viewBox="0 0 16 16" fill="none" xmlns="http://www.w3.org/2000/svg">
<path d="M11.2649 8.26492L6.26492 13.2649C6.19384 13.3312 6.09981 13.3672 6.00266 13.3655C5.90551 13.3638 5.81282 13.3244 5.74411 13.2557C5.67541 13.187 5.63605 13.0943 5.63434 12.9972C5.63262 12.9 5.66868 12.806 5.73492 12.7349L10.4693 7.99992L5.73492 3.26492C5.66868 3.19384 5.63262 3.09981 5.63434 3.00266C5.63605 2.90551 5.67541 2.81282 5.74411 2.74411C5.81282 2.67541 5.90551 2.63605 6.00266 2.63434C6.09981 2.63262 6.19384 2.66868 6.26492 2.73492L11.2649 7.73492C11.3351 7.80524 11.3746 7.90055 11.3746 7.99992C11.3746 8.0993 11.3351 8.19461 11.2649 8.26492Z" fill="#2C70BB"/>
</svg>
