<svg width="17" height="17" viewBox="0 0 17 17" fill="none" xmlns="http://www.w3.org/2000/svg">
<path d="M7.31002 12.41L13.3025 6.41752L12.1125 5.22751L7.31002 10.03L4.88751 7.60752L3.69751 8.79752L7.31002 12.41ZM8.50002 17C7.32418 17 6.21918 16.7769 5.18501 16.3307C4.15084 15.8844 3.25126 15.2788 2.48626 14.5138C1.72125 13.7488 1.11563 12.8492 0.669377 11.815C0.223126 10.7809 0 9.67586 0 8.50002C0 7.32418 0.223126 6.21918 0.669377 5.18501C1.11563 4.15084 1.72125 3.25126 2.48626 2.48626C3.25126 1.72125 4.15084 1.11563 5.18501 0.669377C6.21918 0.223126 7.32418 0 8.50002 0C9.67586 0 10.7809 0.223126 11.815 0.669377C12.8492 1.11563 13.7488 1.72125 14.5138 2.48626C15.2788 3.25126 15.8844 4.15084 16.3307 5.18501C16.7769 6.21918 17 7.32418 17 8.50002C17 9.67586 16.7769 10.7809 16.3307 11.815C15.8844 12.8492 15.2788 13.7488 14.5138 14.5138C13.7488 15.2788 12.8492 15.8844 11.815 16.3307C10.7809 16.7769 9.67586 17 8.50002 17Z" fill="#5ABE8A"/>
</svg>
