<svg width="49" height="48" viewBox="0 0 49 48" fill="none" xmlns="http://www.w3.org/2000/svg">
<circle cx="24.5" cy="24" r="24" fill="#2C70BB"/>
<path d="M35.9863 29.9485H34.7801V23.9176C35.0377 24.0081 35.3184 24.0086 35.5763 23.9188C35.8342 23.8291 36.0541 23.6545 36.1998 23.4236C36.3456 23.1928 36.4088 22.9192 36.3789 22.6478C36.3491 22.3764 36.228 22.1231 36.0355 21.9294L26.1499 12.0417C25.7729 11.6648 25.2616 11.4531 24.7286 11.4531C24.1955 11.4531 23.6843 11.6648 23.3073 12.0417L13.4216 21.9274C13.2279 22.1209 13.1059 22.3744 13.0754 22.6464C13.0449 22.9185 13.1079 23.1928 13.2539 23.4243C13.3999 23.6558 13.6204 23.8307 13.879 23.9204C14.1376 24.01 14.419 24.0091 14.677 23.9176V29.9485H13.4708C13.1509 29.9485 12.8441 30.0756 12.6179 30.3018C12.3917 30.528 12.2646 30.8348 12.2646 31.1547C12.2646 31.4746 12.3917 31.7814 12.6179 32.0076C12.8441 32.2338 13.1509 32.3609 13.4708 32.3609H35.9863C36.3062 32.3609 36.613 32.2338 36.8392 32.0076C37.0654 31.7814 37.1925 31.4746 37.1925 31.1547C37.1925 30.8348 37.0654 30.528 36.8392 30.3018C36.613 30.0756 36.3062 29.9485 35.9863 29.9485ZM17.0894 21.6711L24.7286 14.0319L32.3677 21.6711V29.9485H28.3471V24.7217C28.3471 24.4018 28.22 24.095 27.9938 23.8688C27.7676 23.6426 27.4608 23.5156 27.1409 23.5156H22.3162C21.9963 23.5156 21.6895 23.6426 21.4633 23.8688C21.2371 24.095 21.11 24.4018 21.11 24.7217V29.9485H17.0894V21.6711ZM25.9348 29.9485H23.5224V25.9279H25.9348V29.9485Z" fill="white"/>
</svg>
