<svg width="318" height="59" viewBox="0 0 318 59" fill="none" xmlns="http://www.w3.org/2000/svg">
<path d="M2.772 9.92C1.608 9.668 0.756 9.092 0.756 7.868C0.756 6.296 2.148 5.48 3.6 5.48C5.088 5.48 6.24 6.224 6.492 7.712H5.52C5.316 6.716 4.572 6.272 3.6 6.272C2.688 6.272 1.728 6.764 1.728 7.796C1.728 8.612 2.364 8.912 3.096 9.08L4.656 9.428C5.94 9.704 6.684 10.292 6.684 11.564C6.684 13.136 5.448 14.12 3.672 14.12C2.112 14.12 0.768 13.316 0.528 11.672H1.5C1.716 12.836 2.628 13.328 3.672 13.328C4.932 13.328 5.712 12.668 5.712 11.684C5.712 10.784 5.148 10.472 4.32 10.28L2.772 9.92ZM9.16303 11.456C9.16303 12.764 9.72703 13.352 10.651 13.352C11.707 13.352 12.415 12.62 12.415 11.204V7.76H13.387V14H12.415V12.824C12.019 13.676 11.263 14.12 10.315 14.12C9.04303 14.12 8.19103 13.34 8.19103 11.6V7.76H9.16303V11.456ZM15.3791 5.6H16.3631V8.96C16.8431 8.108 17.6711 7.64 18.6071 7.64C20.0711 7.64 21.3671 8.816 21.3671 10.88C21.3671 12.932 20.0831 14.12 18.6071 14.12C17.6711 14.12 16.8431 13.652 16.3631 12.8V14H15.3791V5.6ZM16.3631 10.88C16.3631 12.428 17.2631 13.352 18.3671 13.352C19.4831 13.352 20.3831 12.428 20.3831 10.88C20.3831 9.332 19.4831 8.408 18.3671 8.408C17.2631 8.408 16.3631 9.332 16.3631 10.88ZM25.3051 14C23.9731 14.168 23.1571 13.808 23.1571 12.428V8.552H22.2211V7.76H23.1571V6.32H24.1291V7.76H25.3051V8.552H24.1291V12.344C24.1291 13.184 24.6211 13.352 25.3051 13.256V14ZM29.1673 14.12C27.5833 14.12 26.2153 13.016 26.2153 10.88C26.2153 8.744 27.5833 7.64 29.1673 7.64C30.7393 7.64 32.1193 8.744 32.1193 10.88C32.1193 13.016 30.7393 14.12 29.1673 14.12ZM27.1873 10.88C27.1873 12.524 28.0873 13.352 29.1673 13.352C30.2473 13.352 31.1473 12.524 31.1473 10.88C31.1473 9.236 30.2473 8.408 29.1673 8.408C28.0873 8.408 27.1873 9.236 27.1873 10.88ZM36.0451 14C34.7131 14.168 33.8971 13.808 33.8971 12.428V8.552H32.9611V7.76H33.8971V6.32H34.8691V7.76H36.0451V8.552H34.8691V12.344C34.8691 13.184 35.3611 13.352 36.0451 13.256V14ZM37.0253 12.308C37.0253 11.18 37.9733 10.532 40.1093 10.388L41.2373 10.304V10.076C41.2373 8.804 40.6613 8.408 39.7853 8.408C38.9333 8.408 38.2973 8.876 38.1653 9.668H37.2173C37.4213 8.396 38.4893 7.64 39.7973 7.64C41.2253 7.64 42.2213 8.276 42.2213 10.208V12.056C42.2213 12.932 42.3653 13.64 42.4973 14H41.5373C41.4533 13.772 41.3813 13.448 41.3453 12.956C41.0213 13.652 40.3613 14.12 39.2453 14.12C37.7813 14.12 37.0253 13.268 37.0253 12.308ZM37.9973 12.284C37.9973 12.86 38.4533 13.412 39.4733 13.412C40.6253 13.412 41.2373 12.62 41.2373 11.672V11.024L40.2893 11.084C38.7173 11.192 37.9973 11.504 37.9973 12.284ZM44.1393 5.6H45.1233V14H44.1393V5.6Z" fill="#202635"/>
<path d="M256.189 15.2V14.108C254.761 14.012 253.585 13.208 253.357 11.672H254.329C254.521 12.716 255.277 13.22 256.189 13.316V10.052L255.601 9.92C254.437 9.668 253.585 9.092 253.585 7.868C253.585 6.38 254.833 5.576 256.189 5.492V4.4H256.621V5.48C258.013 5.552 259.081 6.284 259.321 7.712H258.349C258.157 6.788 257.497 6.332 256.621 6.272V9.236L257.485 9.428C258.769 9.704 259.513 10.292 259.513 11.564C259.513 13.1 258.337 14.072 256.621 14.12V15.2H256.189ZM254.557 7.796C254.557 8.612 255.193 8.912 255.925 9.08L256.189 9.14V6.284C255.361 6.368 254.557 6.86 254.557 7.796ZM256.621 13.328C257.809 13.28 258.541 12.632 258.541 11.684C258.541 10.784 257.977 10.472 257.149 10.28L256.621 10.16V13.328ZM263.507 14.12C262.007 14.12 260.807 13.208 260.699 11.672H261.671C261.779 12.728 262.499 13.352 263.507 13.352C264.575 13.352 265.331 12.632 265.331 11.372C265.331 10.124 264.575 9.392 263.507 9.392C262.763 9.392 262.163 9.764 261.851 10.328H260.903L261.275 5.6H265.871V6.392H262.079L261.839 9.404C262.295 8.924 262.919 8.624 263.687 8.624C265.163 8.624 266.303 9.644 266.303 11.372C266.303 13.112 265.079 14.12 263.507 14.12ZM270.545 14.12C268.493 14.12 267.641 12.368 267.641 9.8C267.641 7.232 268.493 5.48 270.545 5.48C272.585 5.48 273.461 7.232 273.461 9.8C273.461 12.368 272.585 14.12 270.545 14.12ZM268.613 9.8C268.613 11.936 269.129 13.328 270.545 13.328C271.961 13.328 272.489 11.936 272.489 9.8C272.489 7.664 271.961 6.272 270.545 6.272C269.129 6.272 268.613 7.664 268.613 9.8ZM274.771 12.68H275.827V14H274.771V12.68ZM280.043 14.12C277.991 14.12 277.139 12.368 277.139 9.8C277.139 7.232 277.991 5.48 280.043 5.48C282.083 5.48 282.959 7.232 282.959 9.8C282.959 12.368 282.083 14.12 280.043 14.12ZM278.111 9.8C278.111 11.936 278.627 13.328 280.043 13.328C281.459 13.328 281.987 11.936 281.987 9.8C281.987 7.664 281.459 6.272 280.043 6.272C278.627 6.272 278.111 7.664 278.111 9.8ZM287.37 14.12C285.318 14.12 284.466 12.368 284.466 9.8C284.466 7.232 285.318 5.48 287.37 5.48C289.41 5.48 290.286 7.232 290.286 9.8C290.286 12.368 289.41 14.12 287.37 14.12ZM285.438 9.8C285.438 11.936 285.954 13.328 287.37 13.328C288.786 13.328 289.314 11.936 289.314 9.8C289.314 7.664 288.786 6.272 287.37 6.272C285.954 6.272 285.438 7.664 285.438 9.8ZM298.31 14.12C295.886 14.12 295.19 12.656 295.19 10.928V5.6H296.174V10.928C296.174 12.212 296.582 13.328 298.31 13.328C300.014 13.328 300.446 12.212 300.446 10.928V5.6H301.418V10.928C301.418 12.656 300.698 14.12 298.31 14.12ZM305.3 9.92C304.136 9.668 303.284 9.092 303.284 7.868C303.284 6.296 304.676 5.48 306.128 5.48C307.616 5.48 308.768 6.224 309.02 7.712H308.048C307.844 6.716 307.1 6.272 306.128 6.272C305.216 6.272 304.256 6.764 304.256 7.796C304.256 8.612 304.892 8.912 305.624 9.08L307.184 9.428C308.468 9.704 309.212 10.292 309.212 11.564C309.212 13.136 307.976 14.12 306.2 14.12C304.64 14.12 303.296 13.316 303.056 11.672H304.028C304.244 12.836 305.156 13.328 306.2 13.328C307.46 13.328 308.24 12.668 308.24 11.684C308.24 10.784 307.676 10.472 306.848 10.28L305.3 9.92ZM313.071 13.208C315.399 13.208 316.431 11.816 316.431 9.8C316.431 7.784 315.399 6.392 313.071 6.392H311.943V13.208H313.071ZM310.959 14V5.6H313.071C315.963 5.6 317.403 7.316 317.403 9.8C317.403 12.284 315.963 14 313.071 14H310.959Z" fill="#202635"/>
<path d="M42.875 33C42.875 33.0995 42.8355 33.1948 42.7652 33.2652C42.6948 33.3355 42.5995 33.375 42.5 33.375C42.2679 33.375 42.0454 33.2828 41.8813 33.1187C41.7172 32.9546 41.625 32.7321 41.625 32.5V30C41.625 29.9668 41.6118 29.9351 41.5884 29.9116C41.5649 29.8882 41.5332 29.875 41.5 29.875C41.4005 29.875 41.3052 29.8355 41.2348 29.7652C41.1645 29.6948 41.125 29.5995 41.125 29.5C41.125 29.4005 41.1645 29.3052 41.2348 29.2348C41.3052 29.1645 41.4005 29.125 41.5 29.125C41.7321 29.125 41.9546 29.2172 42.1187 29.3813C42.2828 29.5454 42.375 29.7679 42.375 30V32.5C42.375 32.5332 42.3882 32.5649 42.4116 32.5884C42.4351 32.6118 42.4669 32.625 42.5 32.625C42.5995 32.625 42.6948 32.6645 42.7652 32.7348C42.8355 32.8052 42.875 32.9005 42.875 33ZM41.75 27.875C41.8736 27.875 41.9945 27.8383 42.0972 27.7697C42.2 27.701 42.2801 27.6034 42.3274 27.4892C42.3747 27.375 42.3871 27.2493 42.363 27.1281C42.3389 27.0068 42.2794 26.8955 42.1919 26.8081C42.1045 26.7207 41.9932 26.6611 41.8719 26.637C41.7507 26.6129 41.625 26.6253 41.5108 26.6726C41.3966 26.7199 41.299 26.8 41.2303 26.9028C41.1617 27.0055 41.125 27.1264 41.125 27.25C41.125 27.4158 41.1909 27.5747 41.3081 27.6919C41.4253 27.8092 41.5842 27.875 41.75 27.875ZM48.375 30C48.375 31.2609 48.0011 32.4934 47.3006 33.5418C46.6001 34.5901 45.6045 35.4072 44.4396 35.8897C43.2747 36.3722 41.9929 36.4985 40.7563 36.2525C39.5197 36.0065 38.3838 35.3994 37.4922 34.5078C36.6006 33.6162 35.9935 32.4803 35.7475 31.2437C35.5015 30.0071 35.6278 28.7253 36.1103 27.5604C36.5928 26.3955 37.4099 25.3999 38.4582 24.6994C39.5066 23.9989 40.7391 23.625 42 23.625C43.6901 23.627 45.3105 24.2993 46.5056 25.4944C47.7007 26.6895 48.373 28.3099 48.375 30ZM47.625 30C47.625 28.8875 47.2951 27.7999 46.677 26.8749C46.0589 25.9499 45.1804 25.2289 44.1526 24.8032C43.1248 24.3774 41.9938 24.266 40.9026 24.4831C39.8115 24.7001 38.8092 25.2359 38.0225 26.0225C37.2359 26.8092 36.7001 27.8115 36.4831 28.9026C36.266 29.9938 36.3774 31.1248 36.8032 32.1526C37.2289 33.1804 37.9499 34.0589 38.8749 34.677C39.7999 35.2951 40.8875 35.625 42 35.625C43.4913 35.6233 44.9211 35.0302 45.9757 33.9756C47.0302 32.9211 47.6233 31.4913 47.625 30Z" fill="#202635"/>
<path d="M6.24 26.6V27.392H3.708V35H2.736V27.392H0.192V26.6H6.24ZM6.03862 33.308C6.03862 32.18 6.98662 31.532 9.12263 31.388L10.2506 31.304V31.076C10.2506 29.804 9.67462 29.408 8.79863 29.408C7.94662 29.408 7.31062 29.876 7.17863 30.668H6.23062C6.43462 29.396 7.50262 28.64 8.81062 28.64C10.2386 28.64 11.2346 29.276 11.2346 31.208V33.056C11.2346 33.932 11.3786 34.64 11.5106 35H10.5506C10.4666 34.772 10.3946 34.448 10.3586 33.956C10.0346 34.652 9.37463 35.12 8.25863 35.12C6.79462 35.12 6.03862 34.268 6.03862 33.308ZM7.01062 33.284C7.01062 33.86 7.46662 34.412 8.48663 34.412C9.63863 34.412 10.2506 33.62 10.2506 32.672V32.024L9.30263 32.084C7.73062 32.192 7.01062 32.504 7.01062 33.284ZM12.3846 35L14.7126 31.856L12.4206 28.76H13.4766L15.2286 31.16L16.9926 28.76H18.0486L15.7566 31.856L18.0846 35H17.0286L15.2406 32.552L13.4406 35H12.3846ZM21.6065 35.12C20.0105 35.12 18.6185 33.968 18.6185 31.88C18.6185 29.828 19.9745 28.64 21.5825 28.64C23.5385 28.64 24.5585 30.056 24.5465 32.072H19.6145V32.216C19.6625 33.608 20.5745 34.352 21.6065 34.352C22.4945 34.352 23.1785 33.908 23.4425 33.116H24.4265C24.0665 34.424 22.9505 35.12 21.6065 35.12ZM19.6145 31.34H23.5505C23.4185 30.08 22.6505 29.408 21.5825 29.408C20.5745 29.408 19.7465 30.08 19.6145 31.34ZM27.3797 32.108C26.6237 31.952 25.7837 31.58 25.7837 30.5C25.7837 29.336 26.8637 28.64 28.1117 28.64C29.2637 28.64 30.3317 29.24 30.4757 30.38H29.5037C29.4077 29.732 28.8437 29.408 28.1237 29.408C27.3197 29.408 26.7677 29.828 26.7677 30.452C26.7677 31.1 27.3317 31.244 27.7517 31.328L28.9877 31.556C29.9117 31.724 30.6077 32.144 30.6077 33.212C30.6077 34.388 29.5757 35.12 28.1837 35.12C26.8757 35.12 25.8197 34.484 25.6277 33.212H26.5997C26.7317 34.016 27.3917 34.352 28.1837 34.352C29.0837 34.352 29.6357 33.92 29.6357 33.26C29.6357 32.636 29.1437 32.444 28.6037 32.336L27.3797 32.108Z" fill="#202635"/>
<path d="M263.036 36.2V35.108C261.608 35.012 260.432 34.208 260.204 32.672H261.176C261.368 33.716 262.124 34.22 263.036 34.316V31.052L262.448 30.92C261.284 30.668 260.432 30.092 260.432 28.868C260.432 27.38 261.68 26.576 263.036 26.492V25.4H263.468V26.48C264.86 26.552 265.928 27.284 266.168 28.712H265.196C265.004 27.788 264.344 27.332 263.468 27.272V30.236L264.332 30.428C265.616 30.704 266.36 31.292 266.36 32.564C266.36 34.1 265.184 35.072 263.468 35.12V36.2H263.036ZM261.404 28.796C261.404 29.612 262.04 29.912 262.772 30.08L263.036 30.14V27.284C262.208 27.368 261.404 27.86 261.404 28.796ZM263.468 34.328C264.656 34.28 265.388 33.632 265.388 32.684C265.388 31.784 264.824 31.472 263.996 31.28L263.468 31.16V34.328ZM270.545 35.12C268.493 35.12 267.641 33.368 267.641 30.8C267.641 28.232 268.493 26.48 270.545 26.48C272.585 26.48 273.461 28.232 273.461 30.8C273.461 33.368 272.585 35.12 270.545 35.12ZM268.613 30.8C268.613 32.936 269.129 34.328 270.545 34.328C271.961 34.328 272.489 32.936 272.489 30.8C272.489 28.664 271.961 27.272 270.545 27.272C269.129 27.272 268.613 28.664 268.613 30.8ZM274.771 33.68H275.827V35H274.771V33.68ZM280.043 35.12C277.991 35.12 277.139 33.368 277.139 30.8C277.139 28.232 277.991 26.48 280.043 26.48C282.083 26.48 282.959 28.232 282.959 30.8C282.959 33.368 282.083 35.12 280.043 35.12ZM278.111 30.8C278.111 32.936 278.627 34.328 280.043 34.328C281.459 34.328 281.987 32.936 281.987 30.8C281.987 28.664 281.459 27.272 280.043 27.272C278.627 27.272 278.111 28.664 278.111 30.8ZM287.37 35.12C285.318 35.12 284.466 33.368 284.466 30.8C284.466 28.232 285.318 26.48 287.37 26.48C289.41 26.48 290.286 28.232 290.286 30.8C290.286 33.368 289.41 35.12 287.37 35.12ZM285.438 30.8C285.438 32.936 285.954 34.328 287.37 34.328C288.786 34.328 289.314 32.936 289.314 30.8C289.314 28.664 288.786 27.272 287.37 27.272C285.954 27.272 285.438 28.664 285.438 30.8ZM298.31 35.12C295.886 35.12 295.19 33.656 295.19 31.928V26.6H296.174V31.928C296.174 33.212 296.582 34.328 298.31 34.328C300.014 34.328 300.446 33.212 300.446 31.928V26.6H301.418V31.928C301.418 33.656 300.698 35.12 298.31 35.12ZM305.3 30.92C304.136 30.668 303.284 30.092 303.284 28.868C303.284 27.296 304.676 26.48 306.128 26.48C307.616 26.48 308.768 27.224 309.02 28.712H308.048C307.844 27.716 307.1 27.272 306.128 27.272C305.216 27.272 304.256 27.764 304.256 28.796C304.256 29.612 304.892 29.912 305.624 30.08L307.184 30.428C308.468 30.704 309.212 31.292 309.212 32.564C309.212 34.136 307.976 35.12 306.2 35.12C304.64 35.12 303.296 34.316 303.056 32.672H304.028C304.244 33.836 305.156 34.328 306.2 34.328C307.46 34.328 308.24 33.668 308.24 32.684C308.24 31.784 307.676 31.472 306.848 31.28L305.3 30.92ZM313.071 34.208C315.399 34.208 316.431 32.816 316.431 30.8C316.431 28.784 315.399 27.392 313.071 27.392H311.943V34.208H313.071ZM310.959 35V26.6H313.071C315.963 26.6 317.403 28.316 317.403 30.8C317.403 33.284 315.963 35 313.071 35H310.959Z" fill="#202635"/>
<path d="M2.772 51.92C1.608 51.668 0.756 51.092 0.756 49.868C0.756 48.296 2.148 47.48 3.6 47.48C5.088 47.48 6.24 48.224 6.492 49.712H5.52C5.316 48.716 4.572 48.272 3.6 48.272C2.688 48.272 1.728 48.764 1.728 49.796C1.728 50.612 2.364 50.912 3.096 51.08L4.656 51.428C5.94 51.704 6.684 52.292 6.684 53.564C6.684 55.136 5.448 56.12 3.672 56.12C2.112 56.12 0.768 55.316 0.528 53.672H1.5C1.716 54.836 2.628 55.328 3.672 55.328C4.932 55.328 5.712 54.668 5.712 53.684C5.712 52.784 5.148 52.472 4.32 52.28L2.772 51.92ZM12.487 52.304C12.487 50.984 11.935 50.408 10.999 50.408C9.94303 50.408 9.24703 51.14 9.24703 52.556V56H8.26303V47.6H9.24703V50.912C9.64303 50.072 10.387 49.64 11.335 49.64C12.607 49.64 13.459 50.42 13.459 52.16V56H12.487V52.304ZM15.3791 49.76H16.3631V56H15.3791V49.76ZM15.3431 48.824V47.504H16.3991V48.824H15.3431ZM18.3585 49.76H19.3425V50.96C19.8225 50.108 20.6505 49.64 21.5865 49.64C23.0505 49.64 24.3465 50.816 24.3465 52.88C24.3465 54.932 23.0625 56.12 21.5865 56.12C20.6505 56.12 19.8225 55.652 19.3425 54.8V58.16H18.3585V49.76ZM19.3425 52.88C19.3425 54.428 20.2425 55.352 21.3465 55.352C22.4625 55.352 23.3625 54.428 23.3625 52.88C23.3625 51.332 22.4625 50.408 21.3465 50.408C20.2425 50.408 19.3425 51.332 19.3425 52.88ZM25.9433 49.76H26.9273V50.96C27.4073 50.108 28.2353 49.64 29.1713 49.64C30.6353 49.64 31.9313 50.816 31.9313 52.88C31.9313 54.932 30.6473 56.12 29.1713 56.12C28.2353 56.12 27.4073 55.652 26.9273 54.8V58.16H25.9433V49.76ZM26.9273 52.88C26.9273 54.428 27.8273 55.352 28.9313 55.352C30.0473 55.352 30.9473 54.428 30.9473 52.88C30.9473 51.332 30.0473 50.408 28.9313 50.408C27.8273 50.408 26.9273 51.332 26.9273 52.88ZM33.5282 49.76H34.5122V56H33.5282V49.76ZM33.4922 48.824V47.504H34.5482V48.824H33.4922ZM40.7316 52.304C40.7316 50.984 40.1796 50.408 39.2436 50.408C38.1876 50.408 37.4916 51.14 37.4916 52.556V56H36.5076V49.76H37.4916V50.912C37.8876 50.072 38.6316 49.64 39.5796 49.64C40.8516 49.64 41.7036 50.42 41.7036 52.16V56H40.7316V52.304ZM45.9397 55.808C44.4997 55.808 43.2397 54.716 43.2397 52.724C43.2397 50.732 44.5117 49.64 45.9397 49.64C46.8637 49.64 47.6437 50.084 48.0877 50.9V49.76H49.0717V54.824C49.0717 57.188 48.0397 58.28 46.1797 58.28C44.6797 58.28 43.6717 57.488 43.4797 56.228H44.4157C44.5477 57.032 45.1717 57.56 46.1797 57.56C47.5597 57.56 48.0877 56.684 48.0877 54.824V54.548C47.6437 55.364 46.8637 55.808 45.9397 55.808ZM44.2117 52.724C44.2117 54.212 45.0757 55.04 46.1557 55.04C47.2237 55.04 48.0877 54.212 48.0877 52.724C48.0877 51.236 47.2237 50.408 46.1557 50.408C45.0757 50.408 44.2117 51.236 44.2117 52.724ZM50.9242 56V54.68H51.9802V56H50.9242ZM50.9242 51.08V49.76H51.9802V51.08H50.9242Z" fill="#202635"/>
<path d="M290.607 47.6H295.707V48.392H291.591V51.332H295.467V52.112H291.591V56H290.607V47.6ZM297.348 56V47.6H299.856C301.788 47.6 303.168 48.284 303.168 50.024C303.168 51.296 302.436 52.004 301.296 52.304L303.324 56H302.232L300.336 52.448C300.18 52.46 300.024 52.46 299.856 52.46H298.332V56H297.348ZM298.332 51.668H299.856C301.224 51.668 302.196 51.284 302.196 50.024C302.196 48.776 301.224 48.392 299.856 48.392H298.332V51.668ZM304.944 47.6H310.2V48.392H305.928V51.332H309.9V52.112H305.928V55.208H310.26V56H304.944V47.6ZM312.072 47.6H317.328V48.392H313.056V51.332H317.028V52.112H313.056V55.208H317.388V56H312.072V47.6Z" fill="#202635"/>
</svg>
