<svg width="390" height="61" viewBox="0 0 390 61" fill="none" xmlns="http://www.w3.org/2000/svg">
<mask id="path-1-outside-1_615_5653" maskUnits="userSpaceOnUse" x="0" y="0" width="390" height="61" fill="black">
<rect fill="white" width="390" height="61"/>
<path d="M0 0H390V60H0V0Z"/>
</mask>
<path d="M0 0H390V60H0V0Z" fill="white"/>
<path d="M390 60V59H0V60V61H390V60Z" fill="#D9E8F4" mask="url(#path-1-outside-1_615_5653)"/>
<path d="M108.619 27.209C104.774 27.209 100.917 27.3135 97.3122 27.5778C96.642 28.6945 96.1024 29.8843 95.7041 31.1238C99.8076 31.5048 104.195 31.7384 108.588 31.7384C112.981 31.7384 117.368 31.5294 121.471 31.1238C121.085 29.8847 120.556 28.6947 119.894 27.5778C116.32 27.3135 112.457 27.1844 108.619 27.209Z" fill="#2151B1"/>
<path d="M95 37.9528C99.2593 39.9432 103.907 40.9695 108.611 40.958C113.314 40.9647 117.962 39.9365 122.221 37.9467C122.351 36.8648 122.351 35.7714 122.221 34.6895C117.795 35.8333 113.239 36.4075 108.666 36.398C104.093 36.4072 99.5378 35.833 95.1109 34.6895C94.9846 35.7695 94.9846 36.8605 95.1109 37.9405L95 37.9528Z" fill="#2151B1"/>
<path d="M120.97 42.2905C117.201 44.3863 112.962 45.4963 108.647 45.517C104.332 45.4963 100.092 44.3863 96.3237 42.2905C97.4457 44.6085 99.2003 46.5639 101.386 47.9322C103.572 49.3006 106.1 50.0264 108.681 50.0264C111.261 50.0264 113.789 49.3006 115.975 47.9322C118.161 46.5639 119.915 44.6085 121.037 42.2905H120.97Z" fill="#2151B1"/>
<path d="M108.617 9C108.848 9.00803 109.068 9.10233 109.233 9.26426C109.4 9.43823 109.495 9.66879 109.498 9.90956C109.504 11.1712 109.742 12.4211 110.2 13.597H107.021C107.474 12.4195 107.712 11.1706 107.723 9.90956C107.729 9.67955 107.822 9.46015 107.982 9.29499C108.148 9.11905 108.375 9.01342 108.617 9Z" fill="#2151B1"/>
<path d="M108.618 18.1031C110.143 18.101 111.668 18.1871 113.183 18.3612L114.194 19.7501C114.742 20.506 115.315 21.2312 115.925 21.938C116.27 22.3375 116.603 22.7492 116.93 23.1671C114.177 22.7897 111.402 22.6049 108.624 22.614C105.846 22.6047 103.07 22.7895 100.318 23.1671H100.281C100.608 22.7492 100.941 22.3375 101.292 21.938C101.908 21.2312 102.475 20.506 103.017 19.7501L104.034 18.3612C105.555 18.1866 107.086 18.1004 108.618 18.1031Z" fill="#2151B1"/>
<path d="M129.215 30.6601C129.215 35.6154 132.779 39.5019 137.878 39.5019C139.138 39.5078 140.387 39.2616 141.548 38.7782C142.708 38.2948 143.756 37.5843 144.628 36.6903L143.316 34.9778C142.614 35.6925 141.773 36.2625 140.844 36.6546C139.914 37.0466 138.914 37.2528 137.902 37.2611C134.407 37.2611 131.715 34.3341 131.715 30.6601C131.715 26.8768 134.382 24.3263 137.828 24.3263C139.554 24.3263 141.98 25.0428 141.98 26.4456V27.399H144.238V25.7533C144.238 23.0631 140.111 22.1097 137.803 22.1097C136.661 22.0937 135.526 22.3048 134.469 22.7304C133.411 23.156 132.453 23.7872 131.65 24.5861C130.848 25.3849 130.218 26.3349 129.8 27.3787C129.382 28.4226 129.183 29.5388 129.215 30.6601Z" fill="#2151B1"/>
<mask id="mask0_615_5653" style="mask-type:luminance" maskUnits="userSpaceOnUse" x="129" y="22" width="16" height="18">
<path d="M129.221 30.6569C129.221 35.6718 132.77 39.605 137.847 39.605C139.102 39.611 140.346 39.3618 141.502 38.8725C142.657 38.3833 143.701 37.6644 144.569 36.7595L143.263 35.0265C142.563 35.7498 141.726 36.3267 140.8 36.7234C139.875 37.1202 138.879 37.3289 137.871 37.3372C134.39 37.3372 131.71 34.375 131.71 30.6569C131.71 26.8281 134.366 24.247 137.797 24.247C139.517 24.247 141.932 24.9721 141.932 26.3918V27.3567H144.181V25.6912C144.181 22.9687 140.071 22.0038 137.773 22.0038C136.635 21.9876 135.505 22.2012 134.452 22.6319C133.399 23.0626 132.444 23.7014 131.645 24.5099C130.846 25.3183 130.22 26.2797 129.803 27.3361C129.386 28.3925 129.188 29.5221 129.221 30.6569Z" fill="white"/>
</mask>
<g mask="url(#mask0_615_5653)">
<path d="M144.59 22.0029H129.217V39.6041H144.59V22.0029Z" fill="#2151B1"/>
</g>
<path d="M145.894 22.3608V24.3485H146.871C146.941 24.3383 147.014 24.3448 147.082 24.3676C147.149 24.3903 147.211 24.4287 147.262 24.4795C147.312 24.5304 147.351 24.5925 147.373 24.6607C147.396 24.729 147.402 24.8016 147.392 24.8728V37.7194C147.392 38.7925 147.841 39.2498 148.915 39.2498H151.201V37.2622H150.225C150.154 37.2724 150.082 37.2658 150.014 37.2431C149.946 37.2203 149.884 37.182 149.833 37.1311C149.783 37.0802 149.745 37.0182 149.722 36.9499C149.699 36.8817 149.693 36.809 149.703 36.7378V23.8912C149.703 22.8181 149.248 22.3608 148.175 22.3608H145.894Z" fill="#2151B1"/>
<mask id="mask1_615_5653" style="mask-type:luminance" maskUnits="userSpaceOnUse" x="145" y="22" width="7" height="18">
<path d="M145.824 22.2939V24.2974H146.816C146.888 24.2872 146.961 24.2937 147.03 24.3167C147.099 24.3396 147.162 24.3782 147.213 24.4295C147.265 24.4808 147.303 24.5433 147.326 24.6121C147.349 24.681 147.356 24.7542 147.346 24.826V37.7749C147.346 38.8565 147.802 39.3174 148.892 39.3174H151.215V37.314H150.223C150.151 37.3242 150.078 37.3176 150.009 37.2947C149.94 37.2718 149.877 37.2332 149.826 37.1819C149.774 37.1306 149.735 37.0681 149.712 36.9992C149.689 36.9304 149.683 36.8572 149.693 36.7854V23.8365C149.693 22.7549 149.231 22.2939 148.14 22.2939H145.824Z" fill="white"/>
</mask>
<g mask="url(#mask1_615_5653)">
<path d="M151.215 22.2939H145.824V39.3174H151.215V22.2939Z" fill="#2151B1"/>
</g>
<path d="M158.83 28.7103C160.343 28.7103 161.618 29.7768 161.685 31.7765H155.245C155.346 30.9144 155.771 30.1211 156.434 29.5534C157.098 28.9857 157.953 28.6848 158.83 28.7103ZM152.745 33.1944C152.721 34.0363 152.872 34.8741 153.19 35.6557C153.507 36.4372 153.984 37.1457 154.591 37.7369C155.197 38.3282 155.92 38.7896 156.715 39.0923C157.51 39.3951 158.359 39.5326 159.21 39.4965C160.934 39.4906 162.597 38.8662 163.891 37.7392L162.886 36.097C161.902 36.9621 160.642 37.4576 159.326 37.4968C158.783 37.5114 158.242 37.4183 157.736 37.2231C157.23 37.0278 156.768 36.7344 156.378 36.36C155.988 35.9857 155.678 35.538 155.465 35.0432C155.253 34.5485 155.143 34.0167 155.141 33.4792H164.014C164.014 33.4792 164.087 32.8369 164.087 32.5279C164.087 29.4132 162.249 26.8984 158.842 26.8984C155.435 26.8984 152.715 29.3708 152.715 33.1944" fill="#2151B1"/>
<mask id="mask2_615_5653" style="mask-type:luminance" maskUnits="userSpaceOnUse" x="152" y="26" width="13" height="14">
<path d="M158.802 28.6662C160.324 28.6662 161.606 29.7478 161.674 31.7759H155.198C155.299 30.9016 155.726 30.097 156.393 29.5212C157.061 28.9455 157.92 28.6403 158.802 28.6662ZM152.684 33.214C152.66 34.0678 152.812 34.9175 153.131 35.7101C153.45 36.5027 153.93 37.2213 154.54 37.8209C155.149 38.4206 155.877 38.8885 156.676 39.1955C157.475 39.5026 158.329 39.6421 159.184 39.6055C160.918 39.5995 162.591 38.9662 163.892 37.8232L162.881 36.1577C161.892 37.0351 160.625 37.5376 159.302 37.5774C158.755 37.5921 158.212 37.4977 157.702 37.2998C157.193 37.1018 156.729 36.8042 156.337 36.4245C155.945 36.0448 155.633 35.5907 155.419 35.089C155.205 34.5872 155.095 34.0479 155.093 33.5028H164.015C164.015 33.5028 164.089 32.8514 164.089 32.5379C164.089 29.3791 162.241 26.8286 158.815 26.8286C155.389 26.8286 152.653 29.336 152.653 33.214" fill="white"/>
</mask>
<g mask="url(#mask2_615_5653)">
<path d="M164.095 26.8286H152.684V39.6055H164.095V26.8286Z" fill="#2151B1"/>
</g>
<path d="M168.484 35.7225C168.484 33.5089 171.637 33.418 173.353 33.418H173.962V33.8182C173.962 35.6073 172.696 37.6511 170.742 37.6511C169.214 37.6511 168.472 36.699 168.472 35.7225M167.109 29.1545V30.3674H169.281V29.6579C169.281 28.8695 170.693 28.73 171.266 28.73C173.152 28.73 173.938 29.4881 173.938 31.6046V31.7441H173.414C171.387 31.7441 166.11 31.9806 166.11 35.862C166.11 38.2879 168.137 39.5008 170.213 39.5008C171.017 39.5211 171.809 39.3069 172.492 38.8846C173.176 38.4622 173.72 37.8501 174.059 37.1235H174.108C174.075 37.3586 174.059 37.5957 174.059 37.833C174.059 38.6942 174.491 39.2158 175.563 39.2158H177.736V37.2448H176.792C176.721 37.2549 176.649 37.2484 176.58 37.2258C176.512 37.2032 176.45 37.165 176.4 37.1144C176.349 37.0638 176.31 37.0021 176.288 36.9342C176.265 36.8663 176.259 36.7941 176.269 36.7232V31.6046C176.269 28.9422 175.216 26.8984 171.302 26.8984C170.134 26.8984 167.121 27.1835 167.121 29.1545" fill="#2151B1"/>
<mask id="mask3_615_5653" style="mask-type:luminance" maskUnits="userSpaceOnUse" x="166" y="26" width="12" height="14">
<path d="M168.426 35.7706C168.426 33.5274 171.618 33.4352 173.356 33.4352H173.972V33.8408C173.972 35.6538 172.69 37.7249 170.712 37.7249C169.166 37.7249 168.414 36.76 168.414 35.7706M167.034 29.1148V30.3439H169.234V29.6249C169.234 28.826 170.663 28.6846 171.242 28.6846C173.152 28.6846 173.947 29.4528 173.947 31.5977V31.739H173.417C171.365 31.739 166.023 31.9787 166.023 35.9119C166.023 38.3702 168.075 39.5993 170.176 39.5993C170.99 39.6199 171.792 39.4028 172.484 38.9748C173.176 38.5468 173.727 37.9265 174.07 37.1902H174.12C174.086 37.4285 174.07 37.6687 174.07 37.9093C174.07 38.7819 174.508 39.3105 175.592 39.3105H177.792V37.3131H176.837C176.765 37.3234 176.691 37.3168 176.622 37.2939C176.553 37.271 176.491 37.2323 176.439 37.181C176.388 37.1297 176.349 37.0672 176.326 36.9984C176.303 36.9296 176.297 36.8564 176.307 36.7846V31.5977C176.307 28.8997 175.241 26.8286 171.279 26.8286C170.096 26.8286 167.046 27.1175 167.046 29.1148" fill="white"/>
</mask>
<g mask="url(#mask3_615_5653)">
<path d="M177.834 26.8286H166.06V39.6055H177.834V26.8286Z" fill="#2151B1"/>
</g>
<path d="M182.565 30.0832H182.516C182.549 29.8037 182.566 29.5224 182.565 29.2409V28.4662C182.565 27.4764 182.057 27.046 180.985 27.046H178.749V29.0441H179.746C179.819 29.0349 179.893 29.0425 179.962 29.0662C180.031 29.09 180.094 29.1292 180.146 29.1809C180.197 29.2327 180.236 29.2955 180.259 29.3645C180.282 29.4336 180.289 29.507 180.279 29.579V39.2501H182.64V34.2578C182.623 33.5157 182.721 32.7755 182.931 32.0629C183.488 30.2184 184.876 29.1917 186.382 29.1917C186.619 29.192 186.856 29.2167 187.088 29.2655V26.9476C186.883 26.9176 186.676 26.9012 186.469 26.8984C184.573 26.8984 183.16 28.3002 182.578 30.0832" fill="#2151B1"/>
<mask id="mask4_615_5653" style="mask-type:luminance" maskUnits="userSpaceOnUse" x="178" y="26" width="10" height="14">
<path d="M182.636 30.1546H182.587C182.62 29.8752 182.637 29.5941 182.636 29.3127V28.5383C182.636 27.5489 182.131 27.1187 181.065 27.1187H178.841V29.116H179.833C179.905 29.1068 179.979 29.1144 180.048 29.1381C180.116 29.1618 180.179 29.2011 180.23 29.2528C180.281 29.3045 180.32 29.3673 180.343 29.4363C180.366 29.5053 180.373 29.5787 180.363 29.6507V39.3178H182.71V34.3276C182.694 33.5858 182.792 32.8459 183 32.1336C183.554 30.2899 184.935 29.2635 186.432 29.2635C186.668 29.2638 186.903 29.2885 187.134 29.3373V27.0204C186.93 26.9903 186.724 26.9739 186.518 26.9712C184.633 26.9712 183.228 28.3724 182.649 30.1546" fill="white"/>
</mask>
<g mask="url(#mask4_615_5653)">
<path d="M187.134 26.9712H178.841V39.3178H187.134V26.9712Z" fill="#2151B1"/>
</g>
<path d="M187.847 22.3608V24.3485H188.87C188.944 24.3383 189.02 24.3448 189.091 24.3676C189.162 24.3903 189.227 24.4287 189.28 24.4795C189.333 24.5304 189.373 24.5925 189.396 24.6607C189.42 24.729 189.427 24.8016 189.416 24.8728V37.7194C189.416 38.7925 189.893 39.2498 191.011 39.2498H193.407V37.2622H192.384C192.309 37.2724 192.234 37.2658 192.162 37.2431C192.091 37.2203 192.027 37.182 191.974 37.1311C191.921 37.0802 191.881 37.0182 191.857 36.9499C191.833 36.8817 191.826 36.809 191.837 36.7378V23.8912C191.837 22.8181 191.361 22.3608 190.242 22.3608H187.847Z" fill="#2151B1"/>
<mask id="mask5_615_5653" style="mask-type:luminance" maskUnits="userSpaceOnUse" x="187" y="22" width="7" height="18">
<path d="M187.928 22.2939V24.2974H188.92C188.992 24.2872 189.066 24.2937 189.135 24.3167C189.204 24.3396 189.266 24.3782 189.318 24.4295C189.369 24.4808 189.408 24.5433 189.431 24.6121C189.454 24.681 189.46 24.7542 189.45 24.826V37.7749C189.45 38.8565 189.912 39.3174 190.997 39.3174H193.32V37.314H192.328C192.256 37.3242 192.182 37.3176 192.113 37.2947C192.044 37.2718 191.981 37.2332 191.93 37.1819C191.879 37.1306 191.84 37.0681 191.817 36.9992C191.794 36.9304 191.787 36.8572 191.798 36.7854V23.8365C191.798 22.7549 191.336 22.2939 190.251 22.2939H187.928Z" fill="white"/>
</mask>
<g mask="url(#mask5_615_5653)">
<path d="M193.3 22.2939H187.909V39.3174H193.3V22.2939Z" fill="#2151B1"/>
</g>
<path d="M205.362 27.1692C204.958 27.1074 204.546 27.1991 204.209 27.4255C203.872 27.6519 203.637 27.9958 203.551 28.3866L200.987 35.1916C200.815 35.6665 200.678 36.1526 200.576 36.6464H200.526C200.41 36.1529 200.263 35.667 200.084 35.1916L197.278 28.3866C196.885 27.4309 196.518 27.1692 195.523 27.1692H194.128V29.1474H194.421C194.589 29.125 194.759 29.1609 194.902 29.2488C195.046 29.3367 195.153 29.471 195.205 29.6283L199.425 39.2029L198.865 40.5176C198.404 41.5889 197.62 42.2584 196.693 42.2584C196.348 42.2418 196.011 42.1572 195.7 42.0097C195.39 41.8622 195.114 41.6549 194.888 41.4002L193.911 43.0741C194.288 43.4555 194.74 43.7596 195.239 43.9686C195.738 44.1776 196.274 44.2874 196.817 44.2914C197.708 44.2881 198.575 44.0089 199.294 43.4938C200.013 42.9788 200.547 42.2545 200.819 41.4245L205.704 29.6283C205.755 29.4714 205.861 29.3373 206.004 29.2493C206.146 29.1614 206.315 29.1253 206.482 29.1474H206.799V27.1692H205.362Z" fill="#2151B1"/>
<mask id="mask6_615_5653" style="mask-type:luminance" maskUnits="userSpaceOnUse" x="194" y="27" width="13" height="18">
<path d="M205.36 27.1191C204.96 27.0567 204.552 27.1493 204.218 27.3779C203.885 27.6065 203.652 27.9537 203.567 28.3482L201.029 35.2191C200.858 35.6985 200.723 36.1893 200.622 36.6879H200.573C200.458 36.1896 200.312 35.6991 200.135 35.2191L197.356 28.3482C196.968 27.3833 196.605 27.1191 195.619 27.1191H194.239V29.1164H194.528C194.694 29.0938 194.863 29.13 195.005 29.2188C195.147 29.3075 195.253 29.4431 195.305 29.6019L199.482 39.2691L198.927 40.5965C198.472 41.6782 197.695 42.3542 196.777 42.3542C196.436 42.3374 196.102 42.2519 195.795 42.103C195.488 41.9541 195.214 41.7448 194.99 41.4877L194.023 43.1777C194.397 43.5628 194.844 43.8699 195.338 44.0809C195.832 44.2919 196.363 44.4027 196.9 44.4068C197.783 44.4034 198.641 44.1215 199.353 43.6015C200.064 43.0816 200.593 42.3502 200.862 41.5122L205.699 29.6019C205.75 29.4436 205.855 29.3081 205.995 29.2193C206.136 29.1305 206.304 29.0941 206.469 29.1164H206.783V27.1191H205.36Z" fill="white"/>
</mask>
<g mask="url(#mask6_615_5653)">
<path d="M206.765 27.1196H194.023V44.3828H206.765V27.1196Z" fill="#2151B1"/>
</g>
<path d="M209.622 24.4156H208.063V22.3608H217.39C218.472 22.3608 218.93 22.8181 218.93 23.8912V26.0191H216.748V24.946C216.756 24.877 216.749 24.8071 216.727 24.7411C216.705 24.6751 216.669 24.6147 216.622 24.5641C216.574 24.5136 216.515 24.4741 216.451 24.4484C216.386 24.4227 216.316 24.4115 216.247 24.4156H212.054V29.97H217.83V32.0247H212.054V39.2498H209.652L209.622 24.4156Z" fill="#2151B1"/>
<path d="M221.702 29.6694C221.712 29.5975 221.705 29.5242 221.682 29.4553C221.659 29.3863 221.62 29.3237 221.569 29.2723C221.517 29.221 221.454 29.1822 221.385 29.1592C221.316 29.1361 221.243 29.1294 221.171 29.1396H220.193V27.1602H222.447C223.528 27.1602 223.986 27.6109 223.986 28.6889V36.7405C223.976 36.8117 223.982 36.8842 224.005 36.9524C224.028 37.0206 224.066 37.0826 224.117 37.1334C224.168 37.1842 224.23 37.2225 224.299 37.2452C224.367 37.268 224.44 37.2745 224.511 37.2643H225.501V39.2498H223.223C222.142 39.2498 221.69 38.793 221.69 37.7211L221.702 29.6694ZM221.751 22.3608H223.833V24.797H221.751V22.3608Z" fill="#2151B1"/>
<path d="M228.082 24.8728C228.092 24.8016 228.085 24.729 228.062 24.6607C228.038 24.5925 227.998 24.5304 227.945 24.4795C227.892 24.4287 227.827 24.3903 227.756 24.3676C227.685 24.3448 227.609 24.3383 227.535 24.3485H226.512V22.3608H228.908C230.026 22.3608 230.503 22.8181 230.503 23.8912V36.7378C230.492 36.809 230.499 36.8817 230.523 36.9499C230.546 37.0182 230.586 37.0802 230.639 37.1311C230.692 37.182 230.757 37.2203 230.828 37.2431C230.899 37.2658 230.975 37.2724 231.049 37.2622H232.072V39.2498H229.677C228.558 39.2498 228.082 38.7925 228.082 37.7194V24.8728Z" fill="#2151B1"/>
<path d="M234.722 29.1137H233.084V27.2354H234.772V23.8716H237.131V27.2231H240.135V29.1015H237.131V34.6874C237.131 37.1427 238.864 37.4312 239.787 37.4312C239.997 37.4356 240.207 37.417 240.413 37.376V39.4507C240.132 39.4864 239.849 39.5028 239.566 39.4999C237.978 39.4999 234.779 39.0149 234.779 34.9452L234.722 29.1137Z" fill="#2151B1"/>
<path d="M248.038 26.8984C251.47 26.8984 253.302 29.412 253.302 32.5252C253.302 32.8341 253.228 33.4761 253.228 33.4761H244.324C244.326 34.0133 244.436 34.5448 244.649 35.0393C244.863 35.5338 245.174 35.9813 245.565 36.3555C245.957 36.7297 246.42 37.023 246.928 37.2181C247.436 37.4132 247.979 37.5063 248.524 37.4917C249.848 37.457 251.118 36.9638 252.109 36.0987L253.118 37.74C251.819 38.8665 250.15 39.4906 248.42 39.4965C247.566 39.5326 246.714 39.3951 245.916 39.0925C245.118 38.7899 244.393 38.3288 243.784 37.7378C243.175 37.1468 242.697 36.4387 242.378 35.6575C242.06 34.8764 241.908 34.039 241.932 33.1975C241.932 29.3757 244.589 26.9045 248.081 26.9045M250.879 31.7984C250.812 29.7996 249.533 28.7336 248.014 28.7336C247.134 28.7082 246.276 29.0089 245.61 29.5763C244.943 30.1438 244.518 30.9367 244.417 31.7984H250.879Z" fill="#2151B1"/>
<path d="M256.351 29.579C256.361 29.507 256.355 29.4336 256.331 29.3645C256.308 29.2955 256.269 29.2327 256.218 29.1809C256.166 29.1292 256.103 29.09 256.034 29.0662C255.964 29.0425 255.89 29.0349 255.817 29.0441H254.817V27.046H257.059C258.127 27.046 258.643 27.4764 258.643 28.4662V29.2409C258.643 29.5224 258.627 29.8037 258.593 30.0832H258.643C259.226 28.3002 260.636 26.8984 262.536 26.8984C262.744 26.9012 262.952 26.9176 263.157 26.9476V29.2655C262.924 29.2167 262.687 29.192 262.449 29.1917C260.94 29.1917 259.556 30.2492 258.997 32.0629C258.785 32.7752 258.684 33.5154 258.699 34.2578V39.2501H256.351V29.579Z" fill="#2151B1"/>
<path d="M270.181 26.8984C273.663 26.8984 275.541 29.418 275.541 32.5311C275.541 32.84 275.466 33.482 275.466 33.482H266.398C266.399 34.0189 266.511 34.5503 266.727 35.0447C266.944 35.5392 267.26 35.9868 267.658 36.361C268.056 36.7353 268.528 37.0286 269.045 37.2238C269.562 37.419 270.114 37.5121 270.669 37.4976C272.008 37.4557 273.289 36.9605 274.289 36.0985L275.322 37.7398C273.998 38.8676 272.296 39.4918 270.531 39.4962C269.661 39.5332 268.793 39.3963 267.98 39.0941C267.167 38.7919 266.427 38.3309 265.807 37.7399C265.186 37.1488 264.698 36.4404 264.373 35.6588C264.048 34.8773 263.894 34.0393 263.919 33.1973C263.919 29.3756 266.624 26.9045 270.181 26.9045M273.08 31.7983C273.005 29.7996 271.703 28.7336 270.156 28.7336C269.26 28.7083 268.387 29.0092 267.71 29.5767C267.033 30.1443 266.6 30.9371 266.499 31.7983H273.08Z" fill="#2151B1"/>
<path d="M282.845 26.8406C285.667 26.8406 286.6 28.7005 286.6 28.7005H286.649C286.616 28.4303 286.599 28.1583 286.6 27.886V24.8469C286.61 24.7759 286.603 24.7035 286.581 24.6354C286.558 24.5673 286.519 24.5055 286.468 24.4548C286.417 24.4041 286.354 24.3658 286.286 24.3432C286.217 24.3205 286.144 24.314 286.072 24.3241H285.084V22.3608H287.397C288.483 22.3608 288.937 22.8167 288.937 23.8865V36.6935C288.927 36.7645 288.934 36.8369 288.956 36.905C288.979 36.973 289.018 37.0349 289.069 37.0856C289.12 37.1363 289.183 37.1745 289.251 37.1972C289.32 37.2199 289.393 37.2264 289.465 37.2162H290.453V39.1978H288.213C287.158 39.1978 286.722 38.7176 286.722 37.9092C286.722 37.5506 286.722 37.3013 286.722 37.3013H286.673C286.283 38.0022 285.702 38.5799 284.995 38.9681C284.289 39.3562 283.486 39.5391 282.679 39.4956C279.379 39.4956 277.311 36.9184 277.311 33.1742C277.311 29.4299 279.624 26.8406 282.845 26.8406ZM286.673 33.1316C286.673 30.986 285.544 28.8403 283.207 28.8403C281.305 28.8403 279.716 30.4146 279.716 33.1559C279.716 35.7818 281.139 37.4715 283.158 37.4715C284.968 37.4715 286.673 36.2133 286.673 33.1316Z" fill="#2151B1"/>
<path d="M294.999 24.0693C295.01 24.4706 294.901 24.8661 294.685 25.2052C294.47 25.5442 294.158 25.8114 293.789 25.9725C293.421 26.1337 293.012 26.1814 292.616 26.1095C292.22 26.0377 291.855 25.8496 291.566 25.5694C291.278 25.2891 291.08 24.9294 290.998 24.5364C290.916 24.1434 290.954 23.7349 291.106 23.3632C291.258 22.9916 291.518 22.6737 291.853 22.4503C292.187 22.2269 292.581 22.1082 292.983 22.1092C293.245 22.1043 293.505 22.1512 293.749 22.2473C293.992 22.3434 294.214 22.4868 294.402 22.6692C294.589 22.8515 294.739 23.0692 294.841 23.3095C294.944 23.5499 294.997 23.8081 294.999 24.0693ZM291.464 24.0693C291.474 24.3667 291.571 24.6546 291.744 24.8972C291.917 25.1397 292.157 25.3261 292.436 25.4332C292.714 25.5402 293.018 25.5632 293.309 25.4992C293.601 25.4352 293.867 25.287 294.074 25.0732C294.282 24.8594 294.422 24.5894 294.476 24.2969C294.531 24.0044 294.498 23.7023 294.382 23.4283C294.265 23.1543 294.071 22.9205 293.822 22.7561C293.573 22.5917 293.282 22.5039 292.983 22.5038C292.78 22.5045 292.578 22.5459 292.391 22.6255C292.204 22.705 292.034 22.8212 291.893 22.9671C291.751 23.113 291.64 23.2857 291.567 23.475C291.493 23.6643 291.458 23.8663 291.464 24.0693ZM292.669 25.0963H292.217V23.1613C292.466 23.1157 292.718 23.0947 292.971 23.0987C293.208 23.0811 293.445 23.131 293.655 23.2427C293.717 23.2958 293.767 23.3623 293.799 23.4371C293.832 23.512 293.847 23.5932 293.844 23.6748C293.836 23.7836 293.792 23.8868 293.719 23.9684C293.647 24.0499 293.549 24.1052 293.442 24.1257C293.537 24.1697 293.62 24.237 293.682 24.3212C293.745 24.4055 293.785 24.504 293.8 24.6079C293.818 24.7781 293.866 24.9436 293.944 25.0963H293.448C293.375 24.9437 293.324 24.7813 293.297 24.6141C293.26 24.4012 293.14 24.3073 292.889 24.3073H292.669V25.0963ZM292.669 23.9816H292.889C293.14 23.9816 293.341 23.9002 293.341 23.6936C293.341 23.4869 293.209 23.3993 292.921 23.3993C292.837 23.3893 292.753 23.3893 292.669 23.3993V23.9816Z" fill="#2151B1"/>
</svg>
