<svg width="16" height="16" viewBox="0 0 16 16" fill="none" xmlns="http://www.w3.org/2000/svg">
<path d="M8.875 11C8.875 11.0995 8.83549 11.1948 8.76517 11.2652C8.69484 11.3355 8.59946 11.375 8.5 11.375C8.26794 11.375 8.04538 11.2828 7.88128 11.1187C7.71719 10.9546 7.625 10.7321 7.625 10.5V8C7.625 7.96685 7.61183 7.93505 7.58839 7.91161C7.56495 7.88817 7.53315 7.875 7.5 7.875C7.40055 7.875 7.30516 7.83549 7.23484 7.76516C7.16451 7.69484 7.125 7.59946 7.125 7.5C7.125 7.40054 7.16451 7.30516 7.23484 7.23484C7.30516 7.16451 7.40055 7.125 7.5 7.125C7.73207 7.125 7.95463 7.21719 8.11872 7.38128C8.28282 7.54538 8.375 7.76794 8.375 8V10.5C8.375 10.5332 8.38817 10.5649 8.41161 10.5884C8.43506 10.6118 8.46685 10.625 8.5 10.625C8.59946 10.625 8.69484 10.6645 8.76517 10.7348C8.83549 10.8052 8.875 10.9005 8.875 11ZM7.75 5.875C7.87362 5.875 7.99445 5.83834 8.09723 5.76967C8.20002 5.70099 8.28012 5.60338 8.32743 5.48918C8.37473 5.37497 8.38711 5.24931 8.36299 5.12807C8.33888 5.00683 8.27935 4.89547 8.19195 4.80806C8.10454 4.72065 7.99317 4.66112 7.87193 4.63701C7.7507 4.61289 7.62503 4.62527 7.51083 4.67258C7.39662 4.71988 7.29901 4.79999 7.23033 4.90277C7.16166 5.00555 7.125 5.12639 7.125 5.25C7.125 5.41576 7.19085 5.57473 7.30806 5.69194C7.42527 5.80915 7.58424 5.875 7.75 5.875ZM14.375 8C14.375 9.26086 14.0011 10.4934 13.3006 11.5418C12.6001 12.5901 11.6045 13.4072 10.4396 13.8897C9.27473 14.3722 7.99293 14.4985 6.7563 14.2525C5.51967 14.0065 4.38376 13.3994 3.4922 12.5078C2.60064 11.6162 1.99348 10.4803 1.7475 9.2437C1.50152 8.00707 1.62776 6.72527 2.11027 5.56039C2.59278 4.39551 3.40988 3.39988 4.45824 2.69938C5.50661 1.99889 6.73915 1.625 8 1.625C9.69015 1.62698 11.3105 2.29927 12.5056 3.49439C13.7007 4.6895 14.373 6.30985 14.375 8ZM13.625 8C13.625 6.88748 13.2951 5.79994 12.677 4.87492C12.0589 3.94989 11.1804 3.22892 10.1526 2.80318C9.12476 2.37743 7.99376 2.26604 6.90262 2.48308C5.81148 2.70012 4.8092 3.23585 4.02253 4.02252C3.23586 4.80919 2.70013 5.81147 2.48309 6.90262C2.26604 7.99376 2.37744 9.12476 2.80318 10.1526C3.22892 11.1804 3.94989 12.0589 4.87492 12.677C5.79995 13.2951 6.88748 13.625 8 13.625C9.49134 13.6233 10.9211 13.0302 11.9757 11.9756C13.0302 10.9211 13.6233 9.49133 13.625 8Z" fill="#202635"/>
</svg>
