<svg width="16" height="16" viewBox="0 0 16 16" fill="none" xmlns="http://www.w3.org/2000/svg">
<path d="M14.8537 6.64713L9.85371 1.64713C9.78382 1.57716 9.69475 1.52949 9.59777 1.51015C9.50078 1.4908 9.40024 1.50065 9.30886 1.53845C9.21747 1.57625 9.13934 1.6403 9.08436 1.7225C9.02938 1.8047 9.00001 1.90136 8.99996 2.00026V4.52213C7.37871 4.66088 5.58809 5.45463 4.11496 6.70401C2.34121 8.20901 1.23684 10.1484 1.00496 12.1646C0.986842 12.3214 1.01863 12.4799 1.09579 12.6175C1.17295 12.7552 1.29157 12.865 1.43475 12.9313C1.57793 12.9976 1.73838 13.0171 1.89328 12.9869C2.04817 12.9568 2.18961 12.8786 2.29746 12.7634C2.98496 12.0315 5.43121 9.71713 8.99996 9.51338V12.0003C9.00001 12.0992 9.02938 12.1958 9.08436 12.278C9.13934 12.3602 9.21747 12.4243 9.30886 12.4621C9.40024 12.4999 9.50078 12.5097 9.59777 12.4904C9.69475 12.471 9.78382 12.4233 9.85371 12.3534L14.8537 7.35338C14.9472 7.25965 14.9997 7.13266 14.9997 7.00026C14.9997 6.86786 14.9472 6.74087 14.8537 6.64713ZM9.99996 10.7934V9.00026C9.99996 8.86765 9.94728 8.74047 9.85351 8.6467C9.75975 8.55294 9.63257 8.50026 9.49996 8.50026C7.74496 8.50026 6.03559 8.95838 4.41934 9.86276C3.59618 10.3254 2.82922 10.8816 2.13371 11.5203C2.49621 10.0303 3.40996 8.61338 4.76184 7.46651C6.21309 6.23588 7.98434 5.50026 9.49996 5.50026C9.63257 5.50026 9.75975 5.44758 9.85351 5.35381C9.94728 5.26004 9.99996 5.13286 9.99996 5.00026V3.20776L13.7931 7.00026L9.99996 10.7934Z" fill="white"/>
</svg>
